 999
DXF created from gear.py (https://github.com/marmakoide/gear-profile-generator)
 0
SECTION
 2
HEADER
 9
$ACADVER
 1
AC1009
 0
ENDSEC
 0
SECTION
 2
TABLES
 0
TABLE
 2
LAYER
 0
LAYER
2
1
0
ENDTAB
 0
ENDSEC
 0
SECTION
 2
BLOCKS
 0
ENDSEC
 0
SECTION
 2
ENTITIES
 0
LINE
 8
1
 62
1
 10
0.238637
 20
-0.799752
 11
0.233387
 21
-0.793414
 0
LINE
 8
1
 62
1
 10
0.233387
 20
-0.793414
 11
0.228556
 21
-0.787290
 0
LINE
 8
1
 62
1
 10
0.228556
 20
-0.787290
 11
0.224129
 21
-0.781396
 0
LINE
 8
1
 62
1
 10
0.224129
 20
-0.781396
 11
0.220093
 21
-0.775746
 0
LINE
 8
1
 62
1
 10
0.220093
 20
-0.775746
 11
0.216434
 21
-0.770357
 0
LINE
 8
1
 62
1
 10
0.216434
 20
-0.770357
 11
0.213135
 21
-0.765241
 0
LINE
 8
1
 62
1
 10
0.213135
 20
-0.765241
 11
0.210182
 21
-0.760413
 0
LINE
 8
1
 62
1
 10
0.210182
 20
-0.760413
 11
0.207559
 21
-0.755885
 0
LINE
 8
1
 62
1
 10
0.207559
 20
-0.755885
 11
0.205248
 21
-0.751669
 0
LINE
 8
1
 62
1
 10
0.205248
 20
-0.751669
 11
0.203235
 21
-0.747777
 0
LINE
 8
1
 62
1
 10
0.203235
 20
-0.747777
 11
0.201500
 21
-0.744221
 0
LINE
 8
1
 62
1
 10
0.201500
 20
-0.744221
 11
0.200028
 21
-0.741009
 0
LINE
 8
1
 62
1
 10
0.200028
 20
-0.741009
 11
0.198799
 21
-0.738154
 0
LINE
 8
1
 62
1
 10
0.198799
 20
-0.738154
 11
0.197797
 21
-0.735662
 0
LINE
 8
1
 62
1
 10
0.197797
 20
-0.735662
 11
0.197003
 21
-0.733543
 0
LINE
 8
1
 62
1
 10
0.197003
 20
-0.733543
 11
0.196398
 21
-0.731804
 0
LINE
 8
1
 62
1
 10
0.196398
 20
-0.731804
 11
0.195698
 21
-0.729628
 0
LINE
 8
1
 62
1
 10
0.195698
 20
-0.729628
 11
0.193628
 21
-0.723846
 0
LINE
 8
1
 62
1
 10
0.193628
 20
-0.723846
 11
0.191405
 21
-0.718610
 0
LINE
 8
1
 62
1
 10
0.191405
 20
-0.718610
 11
0.189053
 21
-0.713922
 0
LINE
 8
1
 62
1
 10
0.189053
 20
-0.713922
 11
0.186599
 21
-0.709787
 0
LINE
 8
1
 62
1
 10
0.186599
 20
-0.709787
 11
0.184067
 21
-0.706205
 0
LINE
 8
1
 62
1
 10
0.184067
 20
-0.706205
 11
0.181485
 21
-0.703179
 0
LINE
 8
1
 62
1
 10
0.181485
 20
-0.703179
 11
0.178877
 21
-0.700707
 0
LINE
 8
1
 62
1
 10
0.178877
 20
-0.700707
 11
0.176270
 21
-0.698789
 0
LINE
 8
1
 62
1
 10
0.176270
 20
-0.698789
 11
0.173689
 21
-0.697424
 0
LINE
 8
1
 62
1
 10
0.173689
 20
-0.697424
 11
0.171159
 21
-0.696608
 0
LINE
 8
1
 62
1
 10
0.171159
 20
-0.696608
 11
0.168707
 21
-0.696338
 0
LINE
 8
1
 62
1
 10
0.168707
 20
-0.696338
 11
0.166357
 21
-0.696609
 0
LINE
 8
1
 62
1
 10
0.166357
 20
-0.696609
 11
0.156389
 21
-0.698757
 0
LINE
 8
1
 62
1
 10
0.156389
 20
-0.698757
 11
0.131533
 21
-0.703640
 0
LINE
 8
1
 62
1
 10
0.131533
 20
-0.703640
 11
0.106592
 21
-0.708066
 0
LINE
 8
1
 62
1
 10
0.106592
 20
-0.708066
 11
0.096521
 21
-0.709663
 0
LINE
 8
1
 62
1
 10
0.096521
 20
-0.709663
 11
0.094232
 21
-0.710260
 0
LINE
 8
1
 62
1
 10
0.094232
 20
-0.710260
 11
0.092043
 21
-0.711397
 0
LINE
 8
1
 62
1
 10
0.092043
 20
-0.711397
 11
0.089979
 21
-0.713072
 0
LINE
 8
1
 62
1
 10
0.089979
 20
-0.713072
 11
0.088065
 21
-0.715278
 0
LINE
 8
1
 62
1
 10
0.088065
 20
-0.715278
 11
0.086327
 21
-0.718008
 0
LINE
 8
1
 62
1
 10
0.086327
 20
-0.718008
 11
0.084788
 21
-0.721254
 0
LINE
 8
1
 62
1
 10
0.084788
 20
-0.721254
 11
0.083473
 21
-0.725010
 0
LINE
 8
1
 62
1
 10
0.083473
 20
-0.725010
 11
0.082407
 21
-0.729264
 0
LINE
 8
1
 62
1
 10
0.082407
 20
-0.729264
 11
0.081612
 21
-0.734007
 0
LINE
 8
1
 62
1
 10
0.081612
 20
-0.734007
 11
0.081112
 21
-0.739227
 0
LINE
 8
1
 62
1
 10
0.081112
 20
-0.739227
 11
0.080930
 21
-0.744913
 0
LINE
 8
1
 62
1
 10
0.080930
 20
-0.744913
 11
0.081089
 21
-0.751053
 0
LINE
 8
1
 62
1
 10
0.081089
 20
-0.751053
 11
0.081223
 21
-0.753334
 0
LINE
 8
1
 62
1
 10
0.081223
 20
-0.753334
 11
0.081287
 21
-0.755174
 0
LINE
 8
1
 62
1
 10
0.081287
 20
-0.755174
 11
0.081312
 21
-0.757437
 0
LINE
 8
1
 62
1
 10
0.081312
 20
-0.757437
 11
0.081277
 21
-0.760122
 0
LINE
 8
1
 62
1
 10
0.081277
 20
-0.760122
 11
0.081163
 21
-0.763229
 0
LINE
 8
1
 62
1
 10
0.081163
 20
-0.763229
 11
0.080950
 21
-0.766755
 0
LINE
 8
1
 62
1
 10
0.080950
 20
-0.766755
 11
0.080618
 21
-0.770698
 0
LINE
 8
1
 62
1
 10
0.080618
 20
-0.770698
 11
0.080146
 21
-0.775054
 0
LINE
 8
1
 62
1
 10
0.080146
 20
-0.775054
 11
0.079514
 21
-0.779820
 0
LINE
 8
1
 62
1
 10
0.079514
 20
-0.779820
 11
0.078704
 21
-0.784990
 0
LINE
 8
1
 62
1
 10
0.078704
 20
-0.784990
 11
0.077694
 21
-0.790559
 0
LINE
 8
1
 62
1
 10
0.077694
 20
-0.790559
 11
0.076467
 21
-0.796521
 0
LINE
 8
1
 62
1
 10
0.076467
 20
-0.796521
 11
0.075001
 21
-0.802869
 0
LINE
 8
1
 62
1
 10
0.075001
 20
-0.802869
 11
0.073278
 21
-0.809594
 0
LINE
 8
1
 62
1
 10
0.073278
 20
-0.809594
 11
0.071280
 21
-0.816690
 0
LINE
 8
1
 62
1
 10
0.071280
 20
-0.816690
 11
0.068987
 21
-0.824146
 0
LINE
 8
1
 62
1
 10
0.068987
 20
-0.824146
 11
0.066381
 21
-0.831953
 0
LINE
 8
1
 62
1
 10
0.066381
 20
-0.831953
 11
0.063444
 21
-0.840100
 0
LINE
 8
1
 62
1
 10
0.063444
 20
-0.840100
 11
0.060158
 21
-0.848577
 0
LINE
 8
1
 62
1
 10
0.060158
 20
-0.848577
 11
0.056506
 21
-0.857371
 0
LINE
 8
1
 62
1
 10
0.056506
 20
-0.857371
 11
0.052470
 21
-0.866470
 0
LINE
 8
1
 62
1
 10
0.052470
 20
-0.866470
 11
0.048034
 21
-0.875862
 0
LINE
 8
1
 62
1
 10
0.048034
 20
-0.875862
 11
0.043181
 21
-0.885531
 0
LINE
 8
1
 62
1
 10
0.043181
 20
-0.885531
 11
0.037895
 21
-0.895465
 0
LINE
 8
1
 62
1
 10
0.037895
 20
-0.895465
 11
0.032187
 21
-0.905602
 0
LINE
 8
1
 62
1
 10
0.032187
 20
-0.905602
 11
-0.000000
 21
-0.907183
 0
LINE
 8
1
 62
1
 10
-0.000000
 20
-0.907183
 11
-0.032187
 21
-0.905602
 0
LINE
 8
1
 62
1
 10
-0.032187
 20
-0.905602
 11
-0.037895
 21
-0.895465
 0
LINE
 8
1
 62
1
 10
-0.037895
 20
-0.895465
 11
-0.043181
 21
-0.885531
 0
LINE
 8
1
 62
1
 10
-0.043181
 20
-0.885531
 11
-0.048034
 21
-0.875862
 0
LINE
 8
1
 62
1
 10
-0.048034
 20
-0.875862
 11
-0.052470
 21
-0.866470
 0
LINE
 8
1
 62
1
 10
-0.052470
 20
-0.866470
 11
-0.056506
 21
-0.857371
 0
LINE
 8
1
 62
1
 10
-0.056506
 20
-0.857371
 11
-0.060158
 21
-0.848577
 0
LINE
 8
1
 62
1
 10
-0.060158
 20
-0.848577
 11
-0.063444
 21
-0.840100
 0
LINE
 8
1
 62
1
 10
-0.063444
 20
-0.840100
 11
-0.066381
 21
-0.831953
 0
LINE
 8
1
 62
1
 10
-0.066381
 20
-0.831953
 11
-0.068987
 21
-0.824146
 0
LINE
 8
1
 62
1
 10
-0.068987
 20
-0.824146
 11
-0.071280
 21
-0.816690
 0
LINE
 8
1
 62
1
 10
-0.071280
 20
-0.816690
 11
-0.073278
 21
-0.809594
 0
LINE
 8
1
 62
1
 10
-0.073278
 20
-0.809594
 11
-0.075001
 21
-0.802869
 0
LINE
 8
1
 62
1
 10
-0.075001
 20
-0.802869
 11
-0.076467
 21
-0.796521
 0
LINE
 8
1
 62
1
 10
-0.076467
 20
-0.796521
 11
-0.077694
 21
-0.790559
 0
LINE
 8
1
 62
1
 10
-0.077694
 20
-0.790559
 11
-0.078704
 21
-0.784990
 0
LINE
 8
1
 62
1
 10
-0.078704
 20
-0.784990
 11
-0.079514
 21
-0.779820
 0
LINE
 8
1
 62
1
 10
-0.079514
 20
-0.779820
 11
-0.080146
 21
-0.775054
 0
LINE
 8
1
 62
1
 10
-0.080146
 20
-0.775054
 11
-0.080618
 21
-0.770698
 0
LINE
 8
1
 62
1
 10
-0.080618
 20
-0.770698
 11
-0.080950
 21
-0.766755
 0
LINE
 8
1
 62
1
 10
-0.080950
 20
-0.766755
 11
-0.081163
 21
-0.763229
 0
LINE
 8
1
 62
1
 10
-0.081163
 20
-0.763229
 11
-0.081277
 21
-0.760122
 0
LINE
 8
1
 62
1
 10
-0.081277
 20
-0.760122
 11
-0.081312
 21
-0.757437
 0
LINE
 8
1
 62
1
 10
-0.081312
 20
-0.757437
 11
-0.081287
 21
-0.755174
 0
LINE
 8
1
 62
1
 10
-0.081287
 20
-0.755174
 11
-0.081223
 21
-0.753334
 0
LINE
 8
1
 62
1
 10
-0.081223
 20
-0.753334
 11
-0.081089
 21
-0.751053
 0
LINE
 8
1
 62
1
 10
-0.081089
 20
-0.751053
 11
-0.080930
 21
-0.744913
 0
LINE
 8
1
 62
1
 10
-0.080930
 20
-0.744913
 11
-0.081112
 21
-0.739227
 0
LINE
 8
1
 62
1
 10
-0.081112
 20
-0.739227
 11
-0.081612
 21
-0.734007
 0
LINE
 8
1
 62
1
 10
-0.081612
 20
-0.734007
 11
-0.082407
 21
-0.729264
 0
LINE
 8
1
 62
1
 10
-0.082407
 20
-0.729264
 11
-0.083473
 21
-0.725010
 0
LINE
 8
1
 62
1
 10
-0.083473
 20
-0.725010
 11
-0.084788
 21
-0.721254
 0
LINE
 8
1
 62
1
 10
-0.084788
 20
-0.721254
 11
-0.086327
 21
-0.718008
 0
LINE
 8
1
 62
1
 10
-0.086327
 20
-0.718008
 11
-0.088065
 21
-0.715278
 0
LINE
 8
1
 62
1
 10
-0.088065
 20
-0.715278
 11
-0.089979
 21
-0.713072
 0
LINE
 8
1
 62
1
 10
-0.089979
 20
-0.713072
 11
-0.092043
 21
-0.711397
 0
LINE
 8
1
 62
1
 10
-0.092043
 20
-0.711397
 11
-0.094232
 21
-0.710260
 0
LINE
 8
1
 62
1
 10
-0.094232
 20
-0.710260
 11
-0.096521
 21
-0.709663
 0
LINE
 8
1
 62
1
 10
-0.096521
 20
-0.709663
 11
-0.106592
 21
-0.708066
 0
LINE
 8
1
 62
1
 10
-0.106592
 20
-0.708066
 11
-0.131533
 21
-0.703640
 0
LINE
 8
1
 62
1
 10
-0.131533
 20
-0.703640
 11
-0.156389
 21
-0.698757
 0
LINE
 8
1
 62
1
 10
-0.156389
 20
-0.698757
 11
-0.166357
 21
-0.696609
 0
LINE
 8
1
 62
1
 10
-0.166357
 20
-0.696609
 11
-0.168707
 21
-0.696338
 0
LINE
 8
1
 62
1
 10
-0.168707
 20
-0.696338
 11
-0.171159
 21
-0.696608
 0
LINE
 8
1
 62
1
 10
-0.171159
 20
-0.696608
 11
-0.173689
 21
-0.697424
 0
LINE
 8
1
 62
1
 10
-0.173689
 20
-0.697424
 11
-0.176270
 21
-0.698789
 0
LINE
 8
1
 62
1
 10
-0.176270
 20
-0.698789
 11
-0.178877
 21
-0.700707
 0
LINE
 8
1
 62
1
 10
-0.178877
 20
-0.700707
 11
-0.181485
 21
-0.703179
 0
LINE
 8
1
 62
1
 10
-0.181485
 20
-0.703179
 11
-0.184067
 21
-0.706205
 0
LINE
 8
1
 62
1
 10
-0.184067
 20
-0.706205
 11
-0.186599
 21
-0.709787
 0
LINE
 8
1
 62
1
 10
-0.186599
 20
-0.709787
 11
-0.189053
 21
-0.713922
 0
LINE
 8
1
 62
1
 10
-0.189053
 20
-0.713922
 11
-0.191405
 21
-0.718610
 0
LINE
 8
1
 62
1
 10
-0.191405
 20
-0.718610
 11
-0.193628
 21
-0.723846
 0
LINE
 8
1
 62
1
 10
-0.193628
 20
-0.723846
 11
-0.195698
 21
-0.729628
 0
LINE
 8
1
 62
1
 10
-0.195698
 20
-0.729628
 11
-0.196398
 21
-0.731804
 0
LINE
 8
1
 62
1
 10
-0.196398
 20
-0.731804
 11
-0.197003
 21
-0.733543
 0
LINE
 8
1
 62
1
 10
-0.197003
 20
-0.733543
 11
-0.197797
 21
-0.735662
 0
LINE
 8
1
 62
1
 10
-0.197797
 20
-0.735662
 11
-0.198799
 21
-0.738154
 0
LINE
 8
1
 62
1
 10
-0.198799
 20
-0.738154
 11
-0.200028
 21
-0.741009
 0
LINE
 8
1
 62
1
 10
-0.200028
 20
-0.741009
 11
-0.201500
 21
-0.744221
 0
LINE
 8
1
 62
1
 10
-0.201500
 20
-0.744221
 11
-0.203235
 21
-0.747777
 0
LINE
 8
1
 62
1
 10
-0.203235
 20
-0.747777
 11
-0.205248
 21
-0.751669
 0
LINE
 8
1
 62
1
 10
-0.205248
 20
-0.751669
 11
-0.207559
 21
-0.755885
 0
LINE
 8
1
 62
1
 10
-0.207559
 20
-0.755885
 11
-0.210182
 21
-0.760413
 0
LINE
 8
1
 62
1
 10
-0.210182
 20
-0.760413
 11
-0.213135
 21
-0.765241
 0
LINE
 8
1
 62
1
 10
-0.213135
 20
-0.765241
 11
-0.216434
 21
-0.770357
 0
LINE
 8
1
 62
1
 10
-0.216434
 20
-0.770357
 11
-0.220093
 21
-0.775746
 0
LINE
 8
1
 62
1
 10
-0.220093
 20
-0.775746
 11
-0.224129
 21
-0.781396
 0
LINE
 8
1
 62
1
 10
-0.224129
 20
-0.781396
 11
-0.228556
 21
-0.787290
 0
LINE
 8
1
 62
1
 10
-0.228556
 20
-0.787290
 11
-0.233387
 21
-0.793414
 0
LINE
 8
1
 62
1
 10
-0.233387
 20
-0.793414
 11
-0.238637
 21
-0.799752
 0
LINE
 8
1
 62
1
 10
-0.238637
 20
-0.799752
 11
-0.244319
 21
-0.806289
 0
LINE
 8
1
 62
1
 10
-0.244319
 20
-0.806289
 11
-0.250445
 21
-0.813006
 0
LINE
 8
1
 62
1
 10
-0.250445
 20
-0.813006
 11
-0.257028
 21
-0.819887
 0
LINE
 8
1
 62
1
 10
-0.257028
 20
-0.819887
 11
-0.264078
 21
-0.826914
 0
LINE
 8
1
 62
1
 10
-0.264078
 20
-0.826914
 11
-0.271608
 21
-0.834068
 0
LINE
 8
1
 62
1
 10
-0.271608
 20
-0.834068
 11
-0.279626
 21
-0.841332
 0
LINE
 8
1
 62
1
 10
-0.279626
 20
-0.841332
 11
-0.288143
 21
-0.848685
 0
LINE
 8
1
 62
1
 10
-0.288143
 20
-0.848685
 11
-0.297090
 21
-0.856045
 0
LINE
 8
1
 62
1
 10
-0.297090
 20
-0.856045
 11
-0.347164
 21
-0.838128
 0
LINE
 8
1
 62
1
 10
-0.347164
 20
-0.838128
 11
-0.357064
 21
-0.833445
 0
LINE
 8
1
 62
1
 10
-0.357064
 20
-0.833445
 11
-0.358815
 21
-0.821307
 0
LINE
 8
1
 62
1
 10
-0.358815
 20
-0.821307
 11
-0.360155
 21
-0.810135
 0
LINE
 8
1
 62
1
 10
-0.360155
 20
-0.810135
 11
-0.361188
 21
-0.799365
 0
LINE
 8
1
 62
1
 10
-0.361188
 20
-0.799365
 11
-0.361932
 21
-0.789005
 0
LINE
 8
1
 62
1
 10
-0.361932
 20
-0.789005
 11
-0.362408
 21
-0.779062
 0
LINE
 8
1
 62
1
 10
-0.362408
 20
-0.779062
 11
-0.362637
 21
-0.769543
 0
LINE
 8
1
 62
1
 10
-0.362637
 20
-0.769543
 11
-0.362639
 21
-0.760451
 0
LINE
 8
1
 62
1
 10
-0.362639
 20
-0.760451
 11
-0.362435
 21
-0.751793
 0
LINE
 8
1
 62
1
 10
-0.362435
 20
-0.751793
 11
-0.362044
 21
-0.743572
 0
LINE
 8
1
 62
1
 10
-0.362044
 20
-0.743572
 11
-0.361489
 21
-0.735791
 0
LINE
 8
1
 62
1
 10
-0.361489
 20
-0.735791
 11
-0.360789
 21
-0.728453
 0
LINE
 8
1
 62
1
 10
-0.360789
 20
-0.728453
 11
-0.359966
 21
-0.721559
 0
LINE
 8
1
 62
1
 10
-0.359966
 20
-0.721559
 11
-0.359040
 21
-0.715111
 0
LINE
 8
1
 62
1
 10
-0.359040
 20
-0.715111
 11
-0.358031
 21
-0.709108
 0
LINE
 8
1
 62
1
 10
-0.358031
 20
-0.709108
 11
-0.356960
 21
-0.703551
 0
LINE
 8
1
 62
1
 10
-0.356960
 20
-0.703551
 11
-0.355848
 21
-0.698437
 0
LINE
 8
1
 62
1
 10
-0.355848
 20
-0.698437
 11
-0.354716
 21
-0.693765
 0
LINE
 8
1
 62
1
 10
-0.354716
 20
-0.693765
 11
-0.353582
 21
-0.689532
 0
LINE
 8
1
 62
1
 10
-0.353582
 20
-0.689532
 11
-0.352468
 21
-0.685735
 0
LINE
 8
1
 62
1
 10
-0.352468
 20
-0.685735
 11
-0.351393
 21
-0.682370
 0
LINE
 8
1
 62
1
 10
-0.351393
 20
-0.682370
 11
-0.350376
 21
-0.679432
 0
LINE
 8
1
 62
1
 10
-0.350376
 20
-0.679432
 11
-0.349438
 21
-0.676916
 0
LINE
 8
1
 62
1
 10
-0.349438
 20
-0.676916
 11
-0.348598
 21
-0.674815
 0
LINE
 8
1
 62
1
 10
-0.348598
 20
-0.674815
 11
-0.347874
 21
-0.673122
 0
LINE
 8
1
 62
1
 10
-0.347874
 20
-0.673122
 11
-0.346925
 21
-0.671043
 0
LINE
 8
1
 62
1
 10
-0.346925
 20
-0.671043
 11
-0.344559
 21
-0.665376
 0
LINE
 8
1
 62
1
 10
-0.344559
 20
-0.665376
 11
-0.342674
 21
-0.660008
 0
LINE
 8
1
 62
1
 10
-0.342674
 20
-0.660008
 11
-0.341255
 21
-0.654959
 0
LINE
 8
1
 62
1
 10
-0.341255
 20
-0.654959
 11
-0.340282
 21
-0.650249
 0
LINE
 8
1
 62
1
 10
-0.340282
 20
-0.650249
 11
-0.339740
 21
-0.645897
 0
LINE
 8
1
 62
1
 10
-0.339740
 20
-0.645897
 11
-0.339610
 21
-0.641921
 0
LINE
 8
1
 62
1
 10
-0.339610
 20
-0.641921
 11
-0.339872
 21
-0.638337
 0
LINE
 8
1
 62
1
 10
-0.339872
 20
-0.638337
 11
-0.340506
 21
-0.635164
 0
LINE
 8
1
 62
1
 10
-0.340506
 20
-0.635164
 11
-0.341494
 21
-0.632416
 0
LINE
 8
1
 62
1
 10
-0.341494
 20
-0.632416
 11
-0.342814
 21
-0.630109
 0
LINE
 8
1
 62
1
 10
-0.342814
 20
-0.630109
 11
-0.344444
 21
-0.628257
 0
LINE
 8
1
 62
1
 10
-0.344444
 20
-0.628257
 11
-0.346363
 21
-0.626874
 0
LINE
 8
1
 62
1
 10
-0.346363
 20
-0.626874
 11
-0.355177
 21
-0.621746
 0
LINE
 8
1
 62
1
 10
-0.355177
 20
-0.621746
 11
-0.376835
 21
-0.608610
 0
LINE
 8
1
 62
1
 10
-0.376835
 20
-0.608610
 11
-0.398248
 21
-0.595078
 0
LINE
 8
1
 62
1
 10
-0.398248
 20
-0.595078
 11
-0.406767
 21
-0.589473
 0
LINE
 8
1
 62
1
 10
-0.406767
 20
-0.589473
 11
-0.408861
 21
-0.588372
 0
LINE
 8
1
 62
1
 10
-0.408861
 20
-0.588372
 11
-0.411245
 21
-0.587738
 0
LINE
 8
1
 62
1
 10
-0.411245
 20
-0.587738
 11
-0.413898
 21
-0.587585
 0
LINE
 8
1
 62
1
 10
-0.413898
 20
-0.587585
 11
-0.416798
 21
-0.587926
 0
LINE
 8
1
 62
1
 10
-0.416798
 20
-0.587926
 11
-0.419922
 21
-0.588772
 0
LINE
 8
1
 62
1
 10
-0.419922
 20
-0.588772
 11
-0.423247
 21
-0.590135
 0
LINE
 8
1
 62
1
 10
-0.423247
 20
-0.590135
 11
-0.426748
 21
-0.592024
 0
LINE
 8
1
 62
1
 10
-0.426748
 20
-0.592024
 11
-0.430403
 21
-0.594449
 0
LINE
 8
1
 62
1
 10
-0.430403
 20
-0.594449
 11
-0.434185
 21
-0.597419
 0
LINE
 8
1
 62
1
 10
-0.434185
 20
-0.597419
 11
-0.438072
 21
-0.600940
 0
LINE
 8
1
 62
1
 10
-0.438072
 20
-0.600940
 11
-0.442037
 21
-0.605020
 0
LINE
 8
1
 62
1
 10
-0.442037
 20
-0.605020
 11
-0.446055
 21
-0.609664
 0
LINE
 8
1
 62
1
 10
-0.446055
 20
-0.609664
 11
-0.447493
 21
-0.611440
 0
LINE
 8
1
 62
1
 10
-0.447493
 20
-0.611440
 11
-0.448686
 21
-0.612843
 0
LINE
 8
1
 62
1
 10
-0.448686
 20
-0.612843
 11
-0.450192
 21
-0.614532
 0
LINE
 8
1
 62
1
 10
-0.450192
 20
-0.614532
 11
-0.452027
 21
-0.616493
 0
LINE
 8
1
 62
1
 10
-0.452027
 20
-0.616493
 11
-0.454204
 21
-0.618712
 0
LINE
 8
1
 62
1
 10
-0.454204
 20
-0.618712
 11
-0.456737
 21
-0.621175
 0
LINE
 8
1
 62
1
 10
-0.456737
 20
-0.621175
 11
-0.459639
 21
-0.623865
 0
LINE
 8
1
 62
1
 10
-0.459639
 20
-0.623865
 11
-0.462922
 21
-0.626766
 0
LINE
 8
1
 62
1
 10
-0.462922
 20
-0.626766
 11
-0.466600
 21
-0.629862
 0
LINE
 8
1
 62
1
 10
-0.466600
 20
-0.629862
 11
-0.470682
 21
-0.633137
 0
LINE
 8
1
 62
1
 10
-0.470682
 20
-0.633137
 11
-0.475180
 21
-0.636573
 0
LINE
 8
1
 62
1
 10
-0.475180
 20
-0.636573
 11
-0.480103
 21
-0.640151
 0
LINE
 8
1
 62
1
 10
-0.480103
 20
-0.640151
 11
-0.485463
 21
-0.643855
 0
LINE
 8
1
 62
1
 10
-0.485463
 20
-0.643855
 11
-0.491267
 21
-0.647665
 0
LINE
 8
1
 62
1
 10
-0.491267
 20
-0.647665
 11
-0.497524
 21
-0.651562
 0
LINE
 8
1
 62
1
 10
-0.497524
 20
-0.651562
 11
-0.504241
 21
-0.655527
 0
LINE
 8
1
 62
1
 10
-0.504241
 20
-0.655527
 11
-0.511426
 21
-0.659541
 0
LINE
 8
1
 62
1
 10
-0.511426
 20
-0.659541
 11
-0.519086
 21
-0.663584
 0
LINE
 8
1
 62
1
 10
-0.519086
 20
-0.663584
 11
-0.527225
 21
-0.667634
 0
LINE
 8
1
 62
1
 10
-0.527225
 20
-0.667634
 11
-0.535849
 21
-0.671673
 0
LINE
 8
1
 62
1
 10
-0.535849
 20
-0.671673
 11
-0.544961
 21
-0.675678
 0
LINE
 8
1
 62
1
 10
-0.544961
 20
-0.675678
 11
-0.554567
 21
-0.679630
 0
LINE
 8
1
 62
1
 10
-0.554567
 20
-0.679630
 11
-0.564668
 21
-0.683506
 0
LINE
 8
1
 62
1
 10
-0.564668
 20
-0.683506
 11
-0.575266
 21
-0.687286
 0
LINE
 8
1
 62
1
 10
-0.575266
 20
-0.687286
 11
-0.586750
 21
-0.691076
 0
LINE
 8
1
 62
1
 10
-0.586750
 20
-0.691076
 11
-0.634037
 21
-0.648217
 0
LINE
 8
1
 62
1
 10
-0.634037
 20
-0.648217
 11
-0.631275
 21
-0.636227
 0
LINE
 8
1
 62
1
 10
-0.631275
 20
-0.636227
 11
-0.628489
 21
-0.625325
 0
LINE
 8
1
 62
1
 10
-0.628489
 20
-0.625325
 11
-0.625561
 21
-0.614910
 0
LINE
 8
1
 62
1
 10
-0.625561
 20
-0.614910
 11
-0.622513
 21
-0.604980
 0
LINE
 8
1
 62
1
 10
-0.622513
 20
-0.604980
 11
-0.619365
 21
-0.595537
 0
LINE
 8
1
 62
1
 10
-0.619365
 20
-0.595537
 11
-0.616140
 21
-0.586577
 0
LINE
 8
1
 62
1
 10
-0.616140
 20
-0.586577
 11
-0.612858
 21
-0.578099
 0
LINE
 8
1
 62
1
 10
-0.612858
 20
-0.578099
 11
-0.609539
 21
-0.570100
 0
LINE
 8
1
 62
1
 10
-0.609539
 20
-0.570100
 11
-0.606206
 21
-0.562575
 0
LINE
 8
1
 62
1
 10
-0.606206
 20
-0.562575
 11
-0.602877
 21
-0.555520
 0
LINE
 8
1
 62
1
 10
-0.602877
 20
-0.555520
 11
-0.599574
 21
-0.548930
 0
LINE
 8
1
 62
1
 10
-0.599574
 20
-0.548930
 11
-0.596316
 21
-0.542799
 0
LINE
 8
1
 62
1
 10
-0.596316
 20
-0.542799
 11
-0.593122
 21
-0.537121
 0
LINE
 8
1
 62
1
 10
-0.593122
 20
-0.537121
 11
-0.590013
 21
-0.531888
 0
LINE
 8
1
 62
1
 10
-0.590013
 20
-0.531888
 11
-0.587007
 21
-0.527092
 0
LINE
 8
1
 62
1
 10
-0.587007
 20
-0.527092
 11
-0.584123
 21
-0.522726
 0
LINE
 8
1
 62
1
 10
-0.584123
 20
-0.522726
 11
-0.581379
 21
-0.518778
 0
LINE
 8
1
 62
1
 10
-0.581379
 20
-0.518778
 11
-0.578793
 21
-0.515241
 0
LINE
 8
1
 62
1
 10
-0.578793
 20
-0.515241
 11
-0.576383
 21
-0.512103
 0
LINE
 8
1
 62
1
 10
-0.576383
 20
-0.512103
 11
-0.574165
 21
-0.509354
 0
LINE
 8
1
 62
1
 10
-0.574165
 20
-0.509354
 11
-0.572156
 21
-0.506981
 0
LINE
 8
1
 62
1
 10
-0.572156
 20
-0.506981
 11
-0.570372
 21
-0.504973
 0
LINE
 8
1
 62
1
 10
-0.570372
 20
-0.504973
 11
-0.568829
 21
-0.503318
 0
LINE
 8
1
 62
1
 10
-0.568829
 20
-0.503318
 11
-0.567542
 21
-0.502001
 0
LINE
 8
1
 62
1
 10
-0.567542
 20
-0.502001
 11
-0.565907
 21
-0.500405
 0
LINE
 8
1
 62
1
 10
-0.565907
 20
-0.500405
 11
-0.561653
 21
-0.495975
 0
LINE
 8
1
 62
1
 10
-0.561653
 20
-0.495975
 11
-0.557957
 21
-0.491651
 0
LINE
 8
1
 62
1
 10
-0.557957
 20
-0.491651
 11
-0.554809
 21
-0.487456
 0
LINE
 8
1
 62
1
 10
-0.554809
 20
-0.487456
 11
-0.552201
 21
-0.483415
 0
LINE
 8
1
 62
1
 10
-0.552201
 20
-0.483415
 11
-0.550123
 21
-0.479553
 0
LINE
 8
1
 62
1
 10
-0.550123
 20
-0.479553
 11
-0.548565
 21
-0.475892
 0
LINE
 8
1
 62
1
 10
-0.548565
 20
-0.475892
 11
-0.547515
 21
-0.472456
 0
LINE
 8
1
 62
1
 10
-0.547515
 20
-0.472456
 11
-0.546960
 21
-0.469267
 0
LINE
 8
1
 62
1
 10
-0.546960
 20
-0.469267
 11
-0.546889
 21
-0.466348
 0
LINE
 8
1
 62
1
 10
-0.546889
 20
-0.466348
 11
-0.547286
 21
-0.463720
 0
LINE
 8
1
 62
1
 10
-0.547286
 20
-0.463720
 11
-0.548137
 21
-0.461405
 0
LINE
 8
1
 62
1
 10
-0.548137
 20
-0.461405
 11
-0.549427
 21
-0.459422
 0
LINE
 8
1
 62
1
 10
-0.549427
 20
-0.459422
 11
-0.555794
 21
-0.451456
 0
LINE
 8
1
 62
1
 10
-0.555794
 20
-0.451456
 11
-0.571243
 21
-0.431383
 0
LINE
 8
1
 62
1
 10
-0.571243
 20
-0.431383
 11
-0.586323
 21
-0.411030
 0
LINE
 8
1
 62
1
 10
-0.586323
 20
-0.411030
 11
-0.592242
 21
-0.402726
 0
LINE
 8
1
 62
1
 10
-0.592242
 20
-0.402726
 11
-0.593796
 21
-0.400943
 0
LINE
 8
1
 62
1
 10
-0.593796
 20
-0.400943
 11
-0.595790
 21
-0.399490
 0
LINE
 8
1
 62
1
 10
-0.595790
 20
-0.399490
 11
-0.598209
 21
-0.398389
 0
LINE
 8
1
 62
1
 10
-0.598209
 20
-0.398389
 11
-0.601036
 21
-0.397659
 0
LINE
 8
1
 62
1
 10
-0.601036
 20
-0.397659
 11
-0.604255
 21
-0.397320
 0
LINE
 8
1
 62
1
 10
-0.604255
 20
-0.397320
 11
-0.607847
 21
-0.397390
 0
LINE
 8
1
 62
1
 10
-0.607847
 20
-0.397390
 11
-0.611795
 21
-0.397887
 0
LINE
 8
1
 62
1
 10
-0.611795
 20
-0.397887
 11
-0.616078
 21
-0.398828
 0
LINE
 8
1
 62
1
 10
-0.616078
 20
-0.398828
 11
-0.620678
 21
-0.400231
 0
LINE
 8
1
 62
1
 10
-0.620678
 20
-0.400231
 11
-0.625574
 21
-0.402110
 0
LINE
 8
1
 62
1
 10
-0.625574
 20
-0.402110
 11
-0.630745
 21
-0.404482
 0
LINE
 8
1
 62
1
 10
-0.630745
 20
-0.404482
 11
-0.636170
 21
-0.407361
 0
LINE
 8
1
 62
1
 10
-0.636170
 20
-0.407361
 11
-0.638153
 21
-0.408498
 0
LINE
 8
1
 62
1
 10
-0.638153
 20
-0.408498
 11
-0.639771
 21
-0.409375
 0
LINE
 8
1
 62
1
 10
-0.639771
 20
-0.409375
 11
-0.641786
 21
-0.410406
 0
LINE
 8
1
 62
1
 10
-0.641786
 20
-0.410406
 11
-0.644205
 21
-0.411572
 0
LINE
 8
1
 62
1
 10
-0.644205
 20
-0.411572
 11
-0.647037
 21
-0.412855
 0
LINE
 8
1
 62
1
 10
-0.647037
 20
-0.412855
 11
-0.650288
 21
-0.414236
 0
LINE
 8
1
 62
1
 10
-0.650288
 20
-0.414236
 11
-0.653966
 21
-0.415696
 0
LINE
 8
1
 62
1
 10
-0.653966
 20
-0.415696
 11
-0.658076
 21
-0.417215
 0
LINE
 8
1
 62
1
 10
-0.658076
 20
-0.417215
 11
-0.662624
 21
-0.418774
 0
LINE
 8
1
 62
1
 10
-0.662624
 20
-0.418774
 11
-0.667613
 21
-0.420353
 0
LINE
 8
1
 62
1
 10
-0.667613
 20
-0.420353
 11
-0.673048
 21
-0.421932
 0
LINE
 8
1
 62
1
 10
-0.673048
 20
-0.421932
 11
-0.678932
 21
-0.423490
 0
LINE
 8
1
 62
1
 10
-0.678932
 20
-0.423490
 11
-0.685268
 21
-0.425008
 0
LINE
 8
1
 62
1
 10
-0.685268
 20
-0.425008
 11
-0.692056
 21
-0.426463
 0
LINE
 8
1
 62
1
 10
-0.692056
 20
-0.426463
 11
-0.699298
 21
-0.427837
 0
LINE
 8
1
 62
1
 10
-0.699298
 20
-0.427837
 11
-0.706995
 21
-0.429108
 0
LINE
 8
1
 62
1
 10
-0.706995
 20
-0.429108
 11
-0.715145
 21
-0.430255
 0
LINE
 8
1
 62
1
 10
-0.715145
 20
-0.430255
 11
-0.723747
 21
-0.431258
 0
LINE
 8
1
 62
1
 10
-0.723747
 20
-0.431258
 11
-0.732800
 21
-0.432095
 0
LINE
 8
1
 62
1
 10
-0.732800
 20
-0.432095
 11
-0.742300
 21
-0.432745
 0
LINE
 8
1
 62
1
 10
-0.742300
 20
-0.432745
 11
-0.752244
 21
-0.433188
 0
LINE
 8
1
 62
1
 10
-0.752244
 20
-0.433188
 11
-0.762629
 21
-0.433403
 0
LINE
 8
1
 62
1
 10
-0.762629
 20
-0.433403
 11
-0.773448
 21
-0.433369
 0
LINE
 8
1
 62
1
 10
-0.773448
 20
-0.433369
 11
-0.784696
 21
-0.433065
 0
LINE
 8
1
 62
1
 10
-0.784696
 20
-0.433065
 11
-0.797196
 21
-0.432429
 0
LINE
 8
1
 62
1
 10
-0.797196
 20
-0.432429
 11
-0.800064
 21
-0.427643
 0
LINE
 8
1
 62
1
 10
-0.800064
 20
-0.427643
 11
-0.825023
 21
-0.374871
 0
LINE
 8
1
 62
1
 10
-0.825023
 20
-0.374871
 11
-0.818478
 21
-0.365221
 0
LINE
 8
1
 62
1
 10
-0.818478
 20
-0.365221
 11
-0.811942
 21
-0.356062
 0
LINE
 8
1
 62
1
 10
-0.811942
 20
-0.356062
 11
-0.805450
 21
-0.347407
 0
LINE
 8
1
 62
1
 10
-0.805450
 20
-0.347407
 11
-0.799020
 21
-0.339250
 0
LINE
 8
1
 62
1
 10
-0.799020
 20
-0.339250
 11
-0.792674
 21
-0.331581
 0
LINE
 8
1
 62
1
 10
-0.792674
 20
-0.331581
 11
-0.786430
 21
-0.324392
 0
LINE
 8
1
 62
1
 10
-0.786430
 20
-0.324392
 11
-0.780306
 21
-0.317672
 0
LINE
 8
1
 62
1
 10
-0.780306
 20
-0.317672
 11
-0.774322
 21
-0.311411
 0
LINE
 8
1
 62
1
 10
-0.774322
 20
-0.311411
 11
-0.768495
 21
-0.305599
 0
LINE
 8
1
 62
1
 10
-0.768495
 20
-0.305599
 11
-0.762843
 21
-0.300223
 0
LINE
 8
1
 62
1
 10
-0.762843
 20
-0.300223
 11
-0.757382
 21
-0.295271
 0
LINE
 8
1
 62
1
 10
-0.757382
 20
-0.295271
 11
-0.752129
 21
-0.290731
 0
LINE
 8
1
 62
1
 10
-0.752129
 20
-0.290731
 11
-0.747101
 21
-0.286590
 0
LINE
 8
1
 62
1
 10
-0.747101
 20
-0.286590
 11
-0.742311
 21
-0.282834
 0
LINE
 8
1
 62
1
 10
-0.742311
 20
-0.282834
 11
-0.737776
 21
-0.279448
 0
LINE
 8
1
 62
1
 10
-0.737776
 20
-0.279448
 11
-0.733509
 21
-0.276417
 0
LINE
 8
1
 62
1
 10
-0.733509
 20
-0.276417
 11
-0.729524
 21
-0.273728
 0
LINE
 8
1
 62
1
 10
-0.729524
 20
-0.273728
 11
-0.725835
 21
-0.271364
 0
LINE
 8
1
 62
1
 10
-0.725835
 20
-0.271364
 11
-0.722454
 21
-0.269309
 0
LINE
 8
1
 62
1
 10
-0.722454
 20
-0.269309
 11
-0.719392
 21
-0.267546
 0
LINE
 8
1
 62
1
 10
-0.719392
 20
-0.267546
 11
-0.716662
 21
-0.266059
 0
LINE
 8
1
 62
1
 10
-0.716662
 20
-0.266059
 11
-0.714273
 21
-0.264832
 0
LINE
 8
1
 62
1
 10
-0.714273
 20
-0.264832
 11
-0.712237
 21
-0.263845
 0
LINE
 8
1
 62
1
 10
-0.712237
 20
-0.263845
 11
-0.710561
 21
-0.263082
 0
LINE
 8
1
 62
1
 10
-0.710561
 20
-0.263082
 11
-0.708459
 21
-0.262185
 0
LINE
 8
1
 62
1
 10
-0.708459
 20
-0.262185
 11
-0.702893
 21
-0.259591
 0
LINE
 8
1
 62
1
 10
-0.702893
 20
-0.259591
 11
-0.697884
 21
-0.256893
 0
LINE
 8
1
 62
1
 10
-0.697884
 20
-0.256893
 11
-0.693433
 21
-0.254119
 0
LINE
 8
1
 62
1
 10
-0.693433
 20
-0.254119
 11
-0.689542
 21
-0.251293
 0
LINE
 8
1
 62
1
 10
-0.689542
 20
-0.251293
 11
-0.686209
 21
-0.248442
 0
LINE
 8
1
 62
1
 10
-0.686209
 20
-0.248442
 11
-0.683434
 21
-0.245592
 0
LINE
 8
1
 62
1
 10
-0.683434
 20
-0.245592
 11
-0.681213
 21
-0.242767
 0
LINE
 8
1
 62
1
 10
-0.681213
 20
-0.242767
 11
-0.679544
 21
-0.239994
 0
LINE
 8
1
 62
1
 10
-0.679544
 20
-0.239994
 11
-0.678423
 21
-0.237298
 0
LINE
 8
1
 62
1
 10
-0.678423
 20
-0.237298
 11
-0.677844
 21
-0.234704
 0
LINE
 8
1
 62
1
 10
-0.677844
 20
-0.234704
 11
-0.677801
 21
-0.232237
 0
LINE
 8
1
 62
1
 10
-0.677801
 20
-0.232237
 11
-0.678288
 21
-0.229922
 0
LINE
 8
1
 62
1
 10
-0.678288
 20
-0.229922
 11
-0.681347
 21
-0.220195
 0
LINE
 8
1
 62
1
 10
-0.681347
 20
-0.220195
 11
-0.688502
 21
-0.195896
 0
LINE
 8
1
 62
1
 10
-0.688502
 20
-0.195896
 11
-0.695210
 21
-0.171470
 0
LINE
 8
1
 62
1
 10
-0.695210
 20
-0.171470
 11
-0.697730
 21
-0.161589
 0
LINE
 8
1
 62
1
 10
-0.697730
 20
-0.161589
 11
-0.698535
 21
-0.159364
 0
LINE
 8
1
 62
1
 10
-0.698535
 20
-0.159364
 11
-0.699870
 21
-0.157290
 0
LINE
 8
1
 62
1
 10
-0.699870
 20
-0.157290
 11
-0.701728
 21
-0.155389
 0
LINE
 8
1
 62
1
 10
-0.701728
 20
-0.155389
 11
-0.704101
 21
-0.153687
 0
LINE
 8
1
 62
1
 10
-0.704101
 20
-0.153687
 11
-0.706979
 21
-0.152208
 0
LINE
 8
1
 62
1
 10
-0.706979
 20
-0.152208
 11
-0.710354
 21
-0.150975
 0
LINE
 8
1
 62
1
 10
-0.710354
 20
-0.150975
 11
-0.714215
 21
-0.150013
 0
LINE
 8
1
 62
1
 10
-0.714215
 20
-0.150013
 11
-0.718549
 21
-0.149343
 0
LINE
 8
1
 62
1
 10
-0.718549
 20
-0.149343
 11
-0.723345
 21
-0.148989
 0
LINE
 8
1
 62
1
 10
-0.723345
 20
-0.148989
 11
-0.728590
 21
-0.148973
 0
LINE
 8
1
 62
1
 10
-0.728590
 20
-0.148973
 11
-0.734268
 21
-0.149317
 0
LINE
 8
1
 62
1
 10
-0.734268
 20
-0.149317
 11
-0.740367
 21
-0.150042
 0
LINE
 8
1
 62
1
 10
-0.740367
 20
-0.150042
 11
-0.742626
 21
-0.150385
 0
LINE
 8
1
 62
1
 10
-0.742626
 20
-0.150385
 11
-0.744452
 21
-0.150619
 0
LINE
 8
1
 62
1
 10
-0.744452
 20
-0.150619
 11
-0.746703
 21
-0.150852
 0
LINE
 8
1
 62
1
 10
-0.746703
 20
-0.150852
 11
-0.749380
 21
-0.151066
 0
LINE
 8
1
 62
1
 10
-0.749380
 20
-0.151066
 11
-0.752484
 21
-0.151239
 0
LINE
 8
1
 62
1
 10
-0.752484
 20
-0.151239
 11
-0.756015
 21
-0.151352
 0
LINE
 8
1
 62
1
 10
-0.756015
 20
-0.151352
 11
-0.759972
 21
-0.151385
 0
LINE
 8
1
 62
1
 10
-0.759972
 20
-0.151385
 11
-0.764353
 21
-0.151317
 0
LINE
 8
1
 62
1
 10
-0.764353
 20
-0.151317
 11
-0.769157
 21
-0.151128
 0
LINE
 8
1
 62
1
 10
-0.769157
 20
-0.151128
 11
-0.774380
 21
-0.150798
 0
LINE
 8
1
 62
1
 10
-0.774380
 20
-0.150798
 11
-0.780018
 21
-0.150307
 0
LINE
 8
1
 62
1
 10
-0.780018
 20
-0.150307
 11
-0.786068
 21
-0.149634
 0
LINE
 8
1
 62
1
 10
-0.786068
 20
-0.149634
 11
-0.792524
 21
-0.148760
 0
LINE
 8
1
 62
1
 10
-0.792524
 20
-0.148760
 11
-0.799380
 21
-0.147666
 0
LINE
 8
1
 62
1
 10
-0.799380
 20
-0.147666
 11
-0.806629
 21
-0.146331
 0
LINE
 8
1
 62
1
 10
-0.806629
 20
-0.146331
 11
-0.814265
 21
-0.144736
 0
LINE
 8
1
 62
1
 10
-0.814265
 20
-0.144736
 11
-0.822279
 21
-0.142861
 0
LINE
 8
1
 62
1
 10
-0.822279
 20
-0.142861
 11
-0.830662
 21
-0.140688
 0
LINE
 8
1
 62
1
 10
-0.830662
 20
-0.140688
 11
-0.839406
 21
-0.138199
 0
LINE
 8
1
 62
1
 10
-0.839406
 20
-0.138199
 11
-0.848500
 21
-0.135373
 0
LINE
 8
1
 62
1
 10
-0.848500
 20
-0.135373
 11
-0.857933
 21
-0.132194
 0
LINE
 8
1
 62
1
 10
-0.857933
 20
-0.132194
 11
-0.867693
 21
-0.128643
 0
LINE
 8
1
 62
1
 10
-0.867693
 20
-0.128643
 11
-0.877770
 21
-0.124703
 0
LINE
 8
1
 62
1
 10
-0.877770
 20
-0.124703
 11
-0.888149
 21
-0.120356
 0
LINE
 8
1
 62
1
 10
-0.888149
 20
-0.120356
 11
-0.898862
 21
-0.115566
 0
LINE
 8
1
 62
1
 10
-0.898862
 20
-0.115566
 11
-0.902815
 21
-0.088920
 0
LINE
 8
1
 62
1
 10
-0.902815
 20
-0.088920
 11
-0.904655
 21
-0.051472
 0
LINE
 8
1
 62
1
 10
-0.904655
 20
-0.051472
 11
-0.895141
 21
-0.044890
 0
LINE
 8
1
 62
1
 10
-0.895141
 20
-0.044890
 11
-0.885738
 21
-0.038710
 0
LINE
 8
1
 62
1
 10
-0.885738
 20
-0.038710
 11
-0.876557
 21
-0.032986
 0
LINE
 8
1
 62
1
 10
-0.876557
 20
-0.032986
 11
-0.867615
 21
-0.027702
 0
LINE
 8
1
 62
1
 10
-0.867615
 20
-0.027702
 11
-0.858927
 21
-0.022843
 0
LINE
 8
1
 62
1
 10
-0.858927
 20
-0.022843
 11
-0.850508
 21
-0.018395
 0
LINE
 8
1
 62
1
 10
-0.850508
 20
-0.018395
 11
-0.842370
 21
-0.014341
 0
LINE
 8
1
 62
1
 10
-0.842370
 20
-0.014341
 11
-0.834529
 21
-0.010665
 0
LINE
 8
1
 62
1
 10
-0.834529
 20
-0.010665
 11
-0.826995
 21
-0.007350
 0
LINE
 8
1
 62
1
 10
-0.826995
 20
-0.007350
 11
-0.819783
 21
-0.004379
 0
LINE
 8
1
 62
1
 10
-0.819783
 20
-0.004379
 11
-0.812902
 21
-0.001734
 0
LINE
 8
1
 62
1
 10
-0.812902
 20
-0.001734
 11
-0.806364
 21
0.000602
 0
LINE
 8
1
 62
1
 10
-0.806364
 20
0.000602
 11
-0.800179
 21
0.002647
 0
LINE
 8
1
 62
1
 10
-0.800179
 20
0.002647
 11
-0.794356
 21
0.004419
 0
LINE
 8
1
 62
1
 10
-0.794356
 20
0.004419
 11
-0.788904
 21
0.005938
 0
LINE
 8
1
 62
1
 10
-0.788904
 20
0.005938
 11
-0.783830
 21
0.007222
 0
LINE
 8
1
 62
1
 10
-0.783830
 20
0.007222
 11
-0.779143
 21
0.008291
 0
LINE
 8
1
 62
1
 10
-0.779143
 20
0.008291
 11
-0.774849
 21
0.009163
 0
LINE
 8
1
 62
1
 10
-0.774849
 20
0.009163
 11
-0.770954
 21
0.009858
 0
LINE
 8
1
 62
1
 10
-0.770954
 20
0.009858
 11
-0.767462
 21
0.010395
 0
LINE
 8
1
 62
1
 10
-0.767462
 20
0.010395
 11
-0.764379
 21
0.010795
 0
LINE
 8
1
 62
1
 10
-0.764379
 20
0.010795
 11
-0.761708
 21
0.011077
 0
LINE
 8
1
 62
1
 10
-0.761708
 20
0.011077
 11
-0.759453
 21
0.011261
 0
LINE
 8
1
 62
1
 10
-0.759453
 20
0.011261
 11
-0.757615
 21
0.011367
 0
LINE
 8
1
 62
1
 10
-0.757615
 20
0.011367
 11
-0.755331
 21
0.011445
 0
LINE
 8
1
 62
1
 10
-0.755331
 20
0.011445
 11
-0.749203
 21
0.011853
 0
LINE
 8
1
 62
1
 10
-0.749203
 20
0.011853
 11
-0.743558
 21
0.012559
 0
LINE
 8
1
 62
1
 10
-0.743558
 20
0.012559
 11
-0.738406
 21
0.013538
 0
LINE
 8
1
 62
1
 10
-0.738406
 20
0.013538
 11
-0.733756
 21
0.014767
 0
LINE
 8
1
 62
1
 10
-0.733756
 20
0.014767
 11
-0.729619
 21
0.016222
 0
LINE
 8
1
 62
1
 10
-0.729619
 20
0.016222
 11
-0.726001
 21
0.017877
 0
LINE
 8
1
 62
1
 10
-0.726001
 20
0.017877
 11
-0.722910
 21
0.019709
 0
LINE
 8
1
 62
1
 10
-0.722910
 20
0.019709
 11
-0.720352
 21
0.021692
 0
LINE
 8
1
 62
1
 10
-0.720352
 20
0.021692
 11
-0.718332
 21
0.023801
 0
LINE
 8
1
 62
1
 10
-0.718332
 20
0.023801
 11
-0.716855
 21
0.026011
 0
LINE
 8
1
 62
1
 10
-0.716855
 20
0.026011
 11
-0.715924
 21
0.028295
 0
LINE
 8
1
 62
1
 10
-0.715924
 20
0.028295
 11
-0.715542
 21
0.030630
 0
LINE
 8
1
 62
1
 10
-0.715542
 20
0.030630
 11
-0.714881
 21
0.040805
 0
LINE
 8
1
 62
1
 10
-0.714881
 20
0.040805
 11
-0.712775
 21
0.066048
 0
LINE
 8
1
 62
1
 10
-0.712775
 20
0.066048
 11
-0.710206
 21
0.091248
 0
LINE
 8
1
 62
1
 10
-0.710206
 20
0.091248
 11
-0.708987
 21
0.101372
 0
LINE
 8
1
 62
1
 10
-0.708987
 20
0.101372
 11
-0.708934
 21
0.103737
 0
LINE
 8
1
 62
1
 10
-0.708934
 20
0.103737
 11
-0.709429
 21
0.106154
 0
LINE
 8
1
 62
1
 10
-0.709429
 20
0.106154
 11
-0.710475
 21
0.108597
 0
LINE
 8
1
 62
1
 10
-0.710475
 20
0.108597
 11
-0.712073
 21
0.111042
 0
LINE
 8
1
 62
1
 10
-0.712073
 20
0.111042
 11
-0.714223
 21
0.113461
 0
LINE
 8
1
 62
1
 10
-0.714223
 20
0.113461
 11
-0.716924
 21
0.115829
 0
LINE
 8
1
 62
1
 10
-0.716924
 20
0.115829
 11
-0.720176
 21
0.118122
 0
LINE
 8
1
 62
1
 10
-0.720176
 20
0.118122
 11
-0.723976
 21
0.120312
 0
LINE
 8
1
 62
1
 10
-0.723976
 20
0.120312
 11
-0.728321
 21
0.122374
 0
LINE
 8
1
 62
1
 10
-0.728321
 20
0.122374
 11
-0.733205
 21
0.124283
 0
LINE
 8
1
 62
1
 10
-0.733205
 20
0.124283
 11
-0.738624
 21
0.126014
 0
LINE
 8
1
 62
1
 10
-0.738624
 20
0.126014
 11
-0.744573
 21
0.127542
 0
LINE
 8
1
 62
1
 10
-0.744573
 20
0.127542
 11
-0.746804
 21
0.128037
 0
LINE
 8
1
 62
1
 10
-0.746804
 20
0.128037
 11
-0.748591
 21
0.128480
 0
LINE
 8
1
 62
1
 10
-0.748591
 20
0.128480
 11
-0.750774
 21
0.129075
 0
LINE
 8
1
 62
1
 10
-0.750774
 20
0.129075
 11
-0.753348
 21
0.129843
 0
LINE
 8
1
 62
1
 10
-0.753348
 20
0.129843
 11
-0.756305
 21
0.130803
 0
LINE
 8
1
 62
1
 10
-0.756305
 20
0.130803
 11
-0.759638
 21
0.131972
 0
LINE
 8
1
 62
1
 10
-0.759638
 20
0.131972
 11
-0.763339
 21
0.133371
 0
LINE
 8
1
 62
1
 10
-0.763339
 20
0.133371
 11
-0.767400
 21
0.135018
 0
LINE
 8
1
 62
1
 10
-0.767400
 20
0.135018
 11
-0.771811
 21
0.136929
 0
LINE
 8
1
 62
1
 10
-0.771811
 20
0.136929
 11
-0.776562
 21
0.139123
 0
LINE
 8
1
 62
1
 10
-0.776562
 20
0.139123
 11
-0.781642
 21
0.141618
 0
LINE
 8
1
 62
1
 10
-0.781642
 20
0.141618
 11
-0.787041
 21
0.144431
 0
LINE
 8
1
 62
1
 10
-0.787041
 20
0.144431
 11
-0.792745
 21
0.147578
 0
LINE
 8
1
 62
1
 10
-0.792745
 20
0.147578
 11
-0.798742
 21
0.151075
 0
LINE
 8
1
 62
1
 10
-0.798742
 20
0.151075
 11
-0.805020
 21
0.154939
 0
LINE
 8
1
 62
1
 10
-0.805020
 20
0.154939
 11
-0.811564
 21
0.159185
 0
LINE
 8
1
 62
1
 10
-0.811564
 20
0.159185
 11
-0.818360
 21
0.163827
 0
LINE
 8
1
 62
1
 10
-0.818360
 20
0.163827
 11
-0.825392
 21
0.168882
 0
LINE
 8
1
 62
1
 10
-0.825392
 20
0.168882
 11
-0.832646
 21
0.174362
 0
LINE
 8
1
 62
1
 10
-0.832646
 20
0.174362
 11
-0.840105
 21
0.180282
 0
LINE
 8
1
 62
1
 10
-0.840105
 20
0.180282
 11
-0.847752
 21
0.186654
 0
LINE
 8
1
 62
1
 10
-0.847752
 20
0.186654
 11
-0.855571
 21
0.193491
 0
LINE
 8
1
 62
1
 10
-0.855571
 20
0.193491
 11
-0.863544
 21
0.200805
 0
LINE
 8
1
 62
1
 10
-0.863544
 20
0.200805
 11
-0.871652
 21
0.208607
 0
LINE
 8
1
 62
1
 10
-0.871652
 20
0.208607
 11
-0.879776
 21
0.216808
 0
LINE
 8
1
 62
1
 10
-0.879776
 20
0.216808
 11
-0.868120
 21
0.263341
 0
LINE
 8
1
 62
1
 10
-0.868120
 20
0.263341
 11
-0.862628
 21
0.278690
 0
LINE
 8
1
 62
1
 10
-0.862628
 20
0.278690
 11
-0.850911
 21
0.281504
 0
LINE
 8
1
 62
1
 10
-0.850911
 20
0.281504
 11
-0.839910
 21
0.283869
 0
LINE
 8
1
 62
1
 10
-0.839910
 20
0.283869
 11
-0.829281
 21
0.285891
 0
LINE
 8
1
 62
1
 10
-0.829281
 20
0.285891
 11
-0.819034
 21
0.287588
 0
LINE
 8
1
 62
1
 10
-0.819034
 20
0.287588
 11
-0.809178
 21
0.288980
 0
LINE
 8
1
 62
1
 10
-0.809178
 20
0.288980
 11
-0.799720
 21
0.290086
 0
LINE
 8
1
 62
1
 10
-0.799720
 20
0.290086
 11
-0.790667
 21
0.290927
 0
LINE
 8
1
 62
1
 10
-0.790667
 20
0.290927
 11
-0.782027
 21
0.291522
 0
LINE
 8
1
 62
1
 10
-0.782027
 20
0.291522
 11
-0.773805
 21
0.291892
 0
LINE
 8
1
 62
1
 10
-0.773805
 20
0.291892
 11
-0.766006
 21
0.292057
 0
LINE
 8
1
 62
1
 10
-0.766006
 20
0.292057
 11
-0.758635
 21
0.292037
 0
LINE
 8
1
 62
1
 10
-0.758635
 20
0.292037
 11
-0.751695
 21
0.291853
 0
LINE
 8
1
 62
1
 10
-0.751695
 20
0.291853
 11
-0.745188
 21
0.291526
 0
LINE
 8
1
 62
1
 10
-0.745188
 20
0.291526
 11
-0.739118
 21
0.291075
 0
LINE
 8
1
 62
1
 10
-0.739118
 20
0.291075
 11
-0.733485
 21
0.290522
 0
LINE
 8
1
 62
1
 10
-0.733485
 20
0.290522
 11
-0.728291
 21
0.289887
 0
LINE
 8
1
 62
1
 10
-0.728291
 20
0.289887
 11
-0.723534
 21
0.289190
 0
LINE
 8
1
 62
1
 10
-0.723534
 20
0.289190
 11
-0.719215
 21
0.288452
 0
LINE
 8
1
 62
1
 10
-0.719215
 20
0.288452
 11
-0.715332
 21
0.287693
 0
LINE
 8
1
 62
1
 10
-0.715332
 20
0.287693
 11
-0.711882
 21
0.286933
 0
LINE
 8
1
 62
1
 10
-0.711882
 20
0.286933
 11
-0.708863
 21
0.286192
 0
LINE
 8
1
 62
1
 10
-0.708863
 20
0.286192
 11
-0.706270
 21
0.285490
 0
LINE
 8
1
 62
1
 10
-0.706270
 20
0.285490
 11
-0.704101
 21
0.284847
 0
LINE
 8
1
 62
1
 10
-0.704101
 20
0.284847
 11
-0.702348
 21
0.284282
 0
LINE
 8
1
 62
1
 10
-0.702348
 20
0.284282
 11
-0.700190
 21
0.283529
 0
LINE
 8
1
 62
1
 10
-0.700190
 20
0.283529
 11
-0.694329
 21
0.281696
 0
LINE
 8
1
 62
1
 10
-0.694329
 20
0.281696
 11
-0.688810
 21
0.280315
 0
LINE
 8
1
 62
1
 10
-0.688810
 20
0.280315
 11
-0.683652
 21
0.279367
 0
LINE
 8
1
 62
1
 10
-0.683652
 20
0.279367
 11
-0.678873
 21
0.278833
 0
LINE
 8
1
 62
1
 10
-0.678873
 20
0.278833
 11
-0.674489
 21
0.278695
 0
LINE
 8
1
 62
1
 10
-0.674489
 20
0.278695
 11
-0.670518
 21
0.278932
 0
LINE
 8
1
 62
1
 10
-0.670518
 20
0.278932
 11
-0.666974
 21
0.279523
 0
LINE
 8
1
 62
1
 10
-0.666974
 20
0.279523
 11
-0.663872
 21
0.280448
 0
LINE
 8
1
 62
1
 10
-0.663872
 20
0.280448
 11
-0.661227
 21
0.281685
 0
LINE
 8
1
 62
1
 10
-0.661227
 20
0.281685
 11
-0.659052
 21
0.283212
 0
LINE
 8
1
 62
1
 10
-0.659052
 20
0.283212
 11
-0.657358
 21
0.285006
 0
LINE
 8
1
 62
1
 10
-0.657358
 20
0.285006
 11
-0.656158
 21
0.287045
 0
LINE
 8
1
 62
1
 10
-0.656158
 20
0.287045
 11
-0.651866
 21
0.296295
 0
LINE
 8
1
 62
1
 10
-0.651866
 20
0.296295
 11
-0.640783
 21
0.319072
 0
LINE
 8
1
 62
1
 10
-0.640783
 20
0.319072
 11
-0.629285
 21
0.341643
 0
LINE
 8
1
 62
1
 10
-0.629285
 20
0.341643
 11
-0.624490
 21
0.350643
 0
LINE
 8
1
 62
1
 10
-0.624490
 20
0.350643
 11
-0.623587
 21
0.352828
 0
LINE
 8
1
 62
1
 10
-0.623587
 20
0.352828
 11
-0.623175
 21
0.355261
 0
LINE
 8
1
 62
1
 10
-0.623175
 20
0.355261
 11
-0.623268
 21
0.357917
 0
LINE
 8
1
 62
1
 10
-0.623268
 20
0.357917
 11
-0.623875
 21
0.360773
 0
LINE
 8
1
 62
1
 10
-0.623875
 20
0.360773
 11
-0.625006
 21
0.363806
 0
LINE
 8
1
 62
1
 10
-0.625006
 20
0.363806
 11
-0.626670
 21
0.366991
 0
LINE
 8
1
 62
1
 10
-0.626670
 20
0.366991
 11
-0.628874
 21
0.370303
 0
LINE
 8
1
 62
1
 10
-0.628874
 20
0.370303
 11
-0.631626
 21
0.373718
 0
LINE
 8
1
 62
1
 10
-0.631626
 20
0.373718
 11
-0.634932
 21
0.377210
 0
LINE
 8
1
 62
1
 10
-0.634932
 20
0.377210
 11
-0.638797
 21
0.380755
 0
LINE
 8
1
 62
1
 10
-0.638797
 20
0.380755
 11
-0.643225
 21
0.384327
 0
LINE
 8
1
 62
1
 10
-0.643225
 20
0.384327
 11
-0.648220
 21
0.387900
 0
LINE
 8
1
 62
1
 10
-0.648220
 20
0.387900
 11
-0.650121
 21
0.389168
 0
LINE
 8
1
 62
1
 10
-0.650121
 20
0.389168
 11
-0.651628
 21
0.390226
 0
LINE
 8
1
 62
1
 10
-0.651628
 20
0.390226
 11
-0.653449
 21
0.391570
 0
LINE
 8
1
 62
1
 10
-0.653449
 20
0.391570
 11
-0.655571
 21
0.393215
 0
LINE
 8
1
 62
1
 10
-0.655571
 20
0.393215
 11
-0.657982
 21
0.395178
 0
LINE
 8
1
 62
1
 10
-0.657982
 20
0.395178
 11
-0.660667
 21
0.397474
 0
LINE
 8
1
 62
1
 10
-0.660667
 20
0.397474
 11
-0.663613
 21
0.400115
 0
LINE
 8
1
 62
1
 10
-0.663613
 20
0.400115
 11
-0.666805
 21
0.403117
 0
LINE
 8
1
 62
1
 10
-0.666805
 20
0.403117
 11
-0.670228
 21
0.406493
 0
LINE
 8
1
 62
1
 10
-0.670228
 20
0.406493
 11
-0.673865
 21
0.410255
 0
LINE
 8
1
 62
1
 10
-0.673865
 20
0.410255
 11
-0.677701
 21
0.414417
 0
LINE
 8
1
 62
1
 10
-0.677701
 20
0.414417
 11
-0.681719
 21
0.418990
 0
LINE
 8
1
 62
1
 10
-0.681719
 20
0.418990
 11
-0.685901
 21
0.423984
 0
LINE
 8
1
 62
1
 10
-0.685901
 20
0.423984
 11
-0.690230
 21
0.429412
 0
LINE
 8
1
 62
1
 10
-0.690230
 20
0.429412
 11
-0.694688
 21
0.435283
 0
LINE
 8
1
 62
1
 10
-0.694688
 20
0.435283
 11
-0.699257
 21
0.441606
 0
LINE
 8
1
 62
1
 10
-0.699257
 20
0.441606
 11
-0.703916
 21
0.448390
 0
LINE
 8
1
 62
1
 10
-0.703916
 20
0.448390
 11
-0.708648
 21
0.455644
 0
LINE
 8
1
 62
1
 10
-0.708648
 20
0.455644
 11
-0.713432
 21
0.463374
 0
LINE
 8
1
 62
1
 10
-0.713432
 20
0.463374
 11
-0.718249
 21
0.471589
 0
LINE
 8
1
 62
1
 10
-0.718249
 20
0.471589
 11
-0.723078
 21
0.480293
 0
LINE
 8
1
 62
1
 10
-0.723078
 20
0.480293
 11
-0.727899
 21
0.489493
 0
LINE
 8
1
 62
1
 10
-0.727899
 20
0.489493
 11
-0.732691
 21
0.499193
 0
LINE
 8
1
 62
1
 10
-0.732691
 20
0.499193
 11
-0.737433
 21
0.509397
 0
LINE
 8
1
 62
1
 10
-0.737433
 20
0.509397
 11
-0.742195
 21
0.520319
 0
LINE
 8
1
 62
1
 10
-0.742195
 20
0.520319
 11
-0.704196
 21
0.571555
 0
LINE
 8
1
 62
1
 10
-0.704196
 20
0.571555
 11
-0.691760
 21
0.569879
 0
LINE
 8
1
 62
1
 10
-0.691760
 20
0.569879
 11
-0.680647
 21
0.568111
 0
LINE
 8
1
 62
1
 10
-0.680647
 20
0.568111
 11
-0.670006
 21
0.566156
 0
LINE
 8
1
 62
1
 10
-0.670006
 20
0.566156
 11
-0.659838
 21
0.564037
 0
LINE
 8
1
 62
1
 10
-0.659838
 20
0.564037
 11
-0.650144
 21
0.561774
 0
LINE
 8
1
 62
1
 10
-0.650144
 20
0.561774
 11
-0.640925
 21
0.559389
 0
LINE
 8
1
 62
1
 10
-0.640925
 20
0.559389
 11
-0.632181
 21
0.556903
 0
LINE
 8
1
 62
1
 10
-0.632181
 20
0.556903
 11
-0.623909
 21
0.554337
 0
LINE
 8
1
 62
1
 10
-0.623909
 20
0.554337
 11
-0.616108
 21
0.551712
 0
LINE
 8
1
 62
1
 10
-0.616108
 20
0.551712
 11
-0.608777
 21
0.549048
 0
LINE
 8
1
 62
1
 10
-0.608777
 20
0.549048
 11
-0.601910
 21
0.546367
 0
LINE
 8
1
 62
1
 10
-0.601910
 20
0.546367
 11
-0.595505
 21
0.543689
 0
LINE
 8
1
 62
1
 10
-0.595505
 20
0.543689
 11
-0.589556
 21
0.541033
 0
LINE
 8
1
 62
1
 10
-0.589556
 20
0.541033
 11
-0.584059
 21
0.538420
 0
LINE
 8
1
 62
1
 10
-0.584059
 20
0.538420
 11
-0.579006
 21
0.535869
 0
LINE
 8
1
 62
1
 10
-0.579006
 20
0.535869
 11
-0.574392
 21
0.533400
 0
LINE
 8
1
 62
1
 10
-0.574392
 20
0.533400
 11
-0.570208
 21
0.531032
 0
LINE
 8
1
 62
1
 10
-0.570208
 20
0.531032
 11
-0.566447
 21
0.528784
 0
LINE
 8
1
 62
1
 10
-0.566447
 20
0.528784
 11
-0.563100
 21
0.526673
 0
LINE
 8
1
 62
1
 10
-0.563100
 20
0.526673
 11
-0.560158
 21
0.524718
 0
LINE
 8
1
 62
1
 10
-0.560158
 20
0.524718
 11
-0.557610
 21
0.522937
 0
LINE
 8
1
 62
1
 10
-0.557610
 20
0.522937
 11
-0.555447
 21
0.521346
 0
LINE
 8
1
 62
1
 10
-0.555447
 20
0.521346
 11
-0.553656
 21
0.519962
 0
LINE
 8
1
 62
1
 10
-0.553656
 20
0.519962
 11
-0.552226
 21
0.518802
 0
LINE
 8
1
 62
1
 10
-0.552226
 20
0.518802
 11
-0.550486
 21
0.517321
 0
LINE
 8
1
 62
1
 10
-0.550486
 20
0.517321
 11
-0.545682
 21
0.513494
 0
LINE
 8
1
 62
1
 10
-0.545682
 20
0.513494
 11
-0.541035
 21
0.510213
 0
LINE
 8
1
 62
1
 10
-0.541035
 20
0.510213
 11
-0.536568
 21
0.507465
 0
LINE
 8
1
 62
1
 10
-0.536568
 20
0.507465
 11
-0.532304
 21
0.505242
 0
LINE
 8
1
 62
1
 10
-0.532304
 20
0.505242
 11
-0.528266
 21
0.503529
 0
LINE
 8
1
 62
1
 10
-0.528266
 20
0.503529
 11
-0.524477
 21
0.502315
 0
LINE
 8
1
 62
1
 10
-0.524477
 20
0.502315
 11
-0.520959
 21
0.501586
 0
LINE
 8
1
 62
1
 10
-0.520959
 20
0.501586
 11
-0.517733
 21
0.501329
 0
LINE
 8
1
 62
1
 10
-0.517733
 20
0.501329
 11
-0.514819
 21
0.501527
 0
LINE
 8
1
 62
1
 10
-0.514819
 20
0.501527
 11
-0.512239
 21
0.502164
 0
LINE
 8
1
 62
1
 10
-0.512239
 20
0.502164
 11
-0.510012
 21
0.503226
 0
LINE
 8
1
 62
1
 10
-0.510012
 20
0.503226
 11
-0.508157
 21
0.504693
 0
LINE
 8
1
 62
1
 10
-0.508157
 20
0.504693
 11
-0.500813
 21
0.511768
 0
LINE
 8
1
 62
1
 10
-0.500813
 20
0.511768
 11
-0.482250
 21
0.529004
 0
LINE
 8
1
 62
1
 10
-0.482250
 20
0.529004
 11
-0.463375
 21
0.545896
 0
LINE
 8
1
 62
1
 10
-0.463375
 20
0.545896
 11
-0.455653
 21
0.552556
 0
LINE
 8
1
 62
1
 10
-0.455653
 20
0.552556
 11
-0.454021
 21
0.554268
 0
LINE
 8
1
 62
1
 10
-0.454021
 20
0.554268
 11
-0.452759
 21
0.556388
 0
LINE
 8
1
 62
1
 10
-0.452759
 20
0.556388
 11
-0.451886
 21
0.558898
 0
LINE
 8
1
 62
1
 10
-0.451886
 20
0.558898
 11
-0.451420
 21
0.561781
 0
LINE
 8
1
 62
1
 10
-0.451420
 20
0.561781
 11
-0.451379
 21
0.565017
 0
LINE
 8
1
 62
1
 10
-0.451379
 20
0.565017
 11
-0.451780
 21
0.568588
 0
LINE
 8
1
 62
1
 10
-0.451780
 20
0.568588
 11
-0.452639
 21
0.572473
 0
LINE
 8
1
 62
1
 10
-0.452639
 20
0.572473
 11
-0.453971
 21
0.576651
 0
LINE
 8
1
 62
1
 10
-0.453971
 20
0.576651
 11
-0.455792
 21
0.581102
 0
LINE
 8
1
 62
1
 10
-0.455792
 20
0.581102
 11
-0.458116
 21
0.585804
 0
LINE
 8
1
 62
1
 10
-0.458116
 20
0.585804
 11
-0.460955
 21
0.590734
 0
LINE
 8
1
 62
1
 10
-0.460955
 20
0.590734
 11
-0.464322
 21
0.595870
 0
LINE
 8
1
 62
1
 10
-0.464322
 20
0.595870
 11
-0.465636
 21
0.597739
 0
LINE
 8
1
 62
1
 10
-0.465636
 20
0.597739
 11
-0.466659
 21
0.599270
 0
LINE
 8
1
 62
1
 10
-0.466659
 20
0.599270
 11
-0.467872
 21
0.601181
 0
LINE
 8
1
 62
1
 10
-0.467872
 20
0.601181
 11
-0.469256
 21
0.603482
 0
LINE
 8
1
 62
1
 10
-0.469256
 20
0.603482
 11
-0.470795
 21
0.606183
 0
LINE
 8
1
 62
1
 10
-0.470795
 20
0.606183
 11
-0.472470
 21
0.609294
 0
LINE
 8
1
 62
1
 10
-0.472470
 20
0.609294
 11
-0.474263
 21
0.612821
 0
LINE
 8
1
 62
1
 10
-0.474263
 20
0.612821
 11
-0.476155
 21
0.616773
 0
LINE
 8
1
 62
1
 10
-0.476155
 20
0.616773
 11
-0.478127
 21
0.621158
 0
LINE
 8
1
 62
1
 10
-0.478127
 20
0.621158
 11
-0.480159
 21
0.625980
 0
LINE
 8
1
 62
1
 10
-0.480159
 20
0.625980
 11
-0.482233
 21
0.631246
 0
LINE
 8
1
 62
1
 10
-0.482233
 20
0.631246
 11
-0.484328
 21
0.636962
 0
LINE
 8
1
 62
1
 10
-0.484328
 20
0.636962
 11
-0.486423
 21
0.643130
 0
LINE
 8
1
 62
1
 10
-0.486423
 20
0.643130
 11
-0.488499
 21
0.649755
 0
LINE
 8
1
 62
1
 10
-0.488499
 20
0.649755
 11
-0.490535
 21
0.656839
 0
LINE
 8
1
 62
1
 10
-0.490535
 20
0.656839
 11
-0.492511
 21
0.664386
 0
LINE
 8
1
 62
1
 10
-0.492511
 20
0.664386
 11
-0.494405
 21
0.672395
 0
LINE
 8
1
 62
1
 10
-0.494405
 20
0.672395
 11
-0.496197
 21
0.680868
 0
LINE
 8
1
 62
1
 10
-0.496197
 20
0.680868
 11
-0.497866
 21
0.689805
 0
LINE
 8
1
 62
1
 10
-0.497866
 20
0.689805
 11
-0.499390
 21
0.699205
 0
LINE
 8
1
 62
1
 10
-0.499390
 20
0.699205
 11
-0.500749
 21
0.709066
 0
LINE
 8
1
 62
1
 10
-0.500749
 20
0.709066
 11
-0.501921
 21
0.719386
 0
LINE
 8
1
 62
1
 10
-0.501921
 20
0.719386
 11
-0.502885
 21
0.730162
 0
LINE
 8
1
 62
1
 10
-0.502885
 20
0.730162
 11
-0.503620
 21
0.741391
 0
LINE
 8
1
 62
1
 10
-0.503620
 20
0.741391
 11
-0.504152
 21
0.754185
 0
LINE
 8
1
 62
1
 10
-0.504152
 20
0.754185
 11
-0.504004
 21
0.754295
 0
LINE
 8
1
 62
1
 10
-0.504004
 20
0.754295
 11
-0.449492
 21
0.786968
 0
LINE
 8
1
 62
1
 10
-0.449492
 20
0.786968
 11
-0.439183
 21
0.781289
 0
LINE
 8
1
 62
1
 10
-0.439183
 20
0.781289
 11
-0.429459
 21
0.775625
 0
LINE
 8
1
 62
1
 10
-0.429459
 20
0.775625
 11
-0.420243
 21
0.769959
 0
LINE
 8
1
 62
1
 10
-0.420243
 20
0.769959
 11
-0.411527
 21
0.764310
 0
LINE
 8
1
 62
1
 10
-0.411527
 20
0.764310
 11
-0.403305
 21
0.758698
 0
LINE
 8
1
 62
1
 10
-0.403305
 20
0.758698
 11
-0.395570
 21
0.753144
 0
LINE
 8
1
 62
1
 10
-0.395570
 20
0.753144
 11
-0.388314
 21
0.747667
 0
LINE
 8
1
 62
1
 10
-0.388314
 20
0.747667
 11
-0.381528
 21
0.742286
 0
LINE
 8
1
 62
1
 10
-0.381528
 20
0.742286
 11
-0.375203
 21
0.737020
 0
LINE
 8
1
 62
1
 10
-0.375203
 20
0.737020
 11
-0.369328
 21
0.731888
 0
LINE
 8
1
 62
1
 10
-0.369328
 20
0.731888
 11
-0.363894
 21
0.726907
 0
LINE
 8
1
 62
1
 10
-0.363894
 20
0.726907
 11
-0.358889
 21
0.722096
 0
LINE
 8
1
 62
1
 10
-0.358889
 20
0.722096
 11
-0.354301
 21
0.717470
 0
LINE
 8
1
 62
1
 10
-0.354301
 20
0.717470
 11
-0.350119
 21
0.713048
 0
LINE
 8
1
 62
1
 10
-0.350119
 20
0.713048
 11
-0.346329
 21
0.708844
 0
LINE
 8
1
 62
1
 10
-0.346329
 20
0.708844
 11
-0.342918
 21
0.704875
 0
LINE
 8
1
 62
1
 10
-0.342918
 20
0.704875
 11
-0.339872
 21
0.701156
 0
LINE
 8
1
 62
1
 10
-0.339872
 20
0.701156
 11
-0.337178
 21
0.697701
 0
LINE
 8
1
 62
1
 10
-0.337178
 20
0.697701
 11
-0.334819
 21
0.694523
 0
LINE
 8
1
 62
1
 10
-0.334819
 20
0.694523
 11
-0.332782
 21
0.691637
 0
LINE
 8
1
 62
1
 10
-0.332782
 20
0.691637
 11
-0.331050
 21
0.689056
 0
LINE
 8
1
 62
1
 10
-0.331050
 20
0.689056
 11
-0.329607
 21
0.686791
 0
LINE
 8
1
 62
1
 10
-0.329607
 20
0.686791
 11
-0.328436
 21
0.684854
 0
LINE
 8
1
 62
1
 10
-0.328436
 20
0.684854
 11
-0.327522
 21
0.683256
 0
LINE
 8
1
 62
1
 10
-0.327522
 20
0.683256
 11
-0.326435
 21
0.681246
 0
LINE
 8
1
 62
1
 10
-0.326435
 20
0.681246
 11
-0.323338
 21
0.675942
 0
LINE
 8
1
 62
1
 10
-0.323338
 20
0.675942
 11
-0.320190
 21
0.671204
 0
LINE
 8
1
 62
1
 10
-0.320190
 20
0.671204
 11
-0.317017
 21
0.667028
 0
LINE
 8
1
 62
1
 10
-0.317017
 20
0.667028
 11
-0.313844
 21
0.663414
 0
LINE
 8
1
 62
1
 10
-0.313844
 20
0.663414
 11
-0.310698
 21
0.660359
 0
LINE
 8
1
 62
1
 10
-0.310698
 20
0.660359
 11
-0.307603
 21
0.657858
 0
LINE
 8
1
 62
1
 10
-0.307603
 20
0.657858
 11
-0.304586
 21
0.655908
 0
LINE
 8
1
 62
1
 10
-0.304586
 20
0.655908
 11
-0.301671
 21
0.654502
 0
LINE
 8
1
 62
1
 10
-0.301671
 20
0.654502
 11
-0.298882
 21
0.653634
 0
LINE
 8
1
 62
1
 10
-0.298882
 20
0.653634
 11
-0.296246
 21
0.653296
 0
LINE
 8
1
 62
1
 10
-0.296246
 20
0.653296
 11
-0.293786
 21
0.653482
 0
LINE
 8
1
 62
1
 10
-0.293786
 20
0.653482
 11
-0.291526
 21
0.654180
 0
LINE
 8
1
 62
1
 10
-0.291526
 20
0.654180
 11
-0.282122
 21
0.658123
 0
LINE
 8
1
 62
1
 10
-0.282122
 20
0.658123
 11
-0.258587
 21
0.667490
 0
LINE
 8
1
 62
1
 10
-0.258587
 20
0.667490
 11
-0.234884
 21
0.676424
 0
LINE
 8
1
 62
1
 10
-0.234884
 20
0.676424
 11
-0.225278
 21
0.679844
 0
LINE
 8
1
 62
1
 10
-0.225278
 20
0.679844
 11
-0.223137
 21
0.680851
 0
LINE
 8
1
 62
1
 10
-0.223137
 20
0.680851
 11
-0.221194
 21
0.682372
 0
LINE
 8
1
 62
1
 10
-0.221194
 20
0.682372
 11
-0.219473
 21
0.684397
 0
LINE
 8
1
 62
1
 10
-0.219473
 20
0.684397
 11
-0.217998
 21
0.686917
 0
LINE
 8
1
 62
1
 10
-0.217998
 20
0.686917
 11
-0.216790
 21
0.689920
 0
LINE
 8
1
 62
1
 10
-0.216790
 20
0.689920
 11
-0.215874
 21
0.693394
 0
LINE
 8
1
 62
1
 10
-0.215874
 20
0.693394
 11
-0.215272
 21
0.697327
 0
LINE
 8
1
 62
1
 10
-0.215272
 20
0.697327
 11
-0.215005
 21
0.701704
 0
LINE
 8
1
 62
1
 10
-0.215005
 20
0.701704
 11
-0.215096
 21
0.706513
 0
LINE
 8
1
 62
1
 10
-0.215096
 20
0.706513
 11
-0.215564
 21
0.711736
 0
LINE
 8
1
 62
1
 10
-0.215564
 20
0.711736
 11
-0.216430
 21
0.717359
 0
LINE
 8
1
 62
1
 10
-0.216430
 20
0.717359
 11
-0.217714
 21
0.723364
 0
LINE
 8
1
 62
1
 10
-0.217714
 20
0.723364
 11
-0.218265
 21
0.725582
 0
LINE
 8
1
 62
1
 10
-0.218265
 20
0.725582
 11
-0.218666
 21
0.727379
 0
LINE
 8
1
 62
1
 10
-0.218666
 20
0.727379
 11
-0.219106
 21
0.729599
 0
LINE
 8
1
 62
1
 10
-0.219106
 20
0.729599
 11
-0.219565
 21
0.732245
 0
LINE
 8
1
 62
1
 10
-0.219565
 20
0.732245
 11
-0.220024
 21
0.735320
 0
LINE
 8
1
 62
1
 10
-0.220024
 20
0.735320
 11
-0.220463
 21
0.738825
 0
LINE
 8
1
 62
1
 10
-0.220463
 20
0.738825
 11
-0.220860
 21
0.742762
 0
LINE
 8
1
 62
1
 10
-0.220860
 20
0.742762
 11
-0.221197
 21
0.747131
 0
LINE
 8
1
 62
1
 10
-0.221197
 20
0.747131
 11
-0.221452
 21
0.751932
 0
LINE
 8
1
 62
1
 10
-0.221452
 20
0.751932
 11
-0.221605
 21
0.757163
 0
LINE
 8
1
 62
1
 10
-0.221605
 20
0.757163
 11
-0.221636
 21
0.762822
 0
LINE
 8
1
 62
1
 10
-0.221636
 20
0.762822
 11
-0.221525
 21
0.768908
 0
LINE
 8
1
 62
1
 10
-0.221525
 20
0.768908
 11
-0.221251
 21
0.775417
 0
LINE
 8
1
 62
1
 10
-0.221251
 20
0.775417
 11
-0.220793
 21
0.782345
 0
LINE
 8
1
 62
1
 10
-0.220793
 20
0.782345
 11
-0.220133
 21
0.789686
 0
LINE
 8
1
 62
1
 10
-0.220133
 20
0.789686
 11
-0.219249
 21
0.797437
 0
LINE
 8
1
 62
1
 10
-0.219249
 20
0.797437
 11
-0.218122
 21
0.805590
 0
LINE
 8
1
 62
1
 10
-0.218122
 20
0.805590
 11
-0.216732
 21
0.814138
 0
LINE
 8
1
 62
1
 10
-0.216732
 20
0.814138
 11
-0.215060
 21
0.823074
 0
LINE
 8
1
 62
1
 10
-0.215060
 20
0.823074
 11
-0.213085
 21
0.832390
 0
LINE
 8
1
 62
1
 10
-0.213085
 20
0.832390
 11
-0.210790
 21
0.842076
 0
LINE
 8
1
 62
1
 10
-0.210790
 20
0.842076
 11
-0.208155
 21
0.852122
 0
LINE
 8
1
 62
1
 10
-0.208155
 20
0.852122
 11
-0.205161
 21
0.862519
 0
LINE
 8
1
 62
1
 10
-0.205161
 20
0.862519
 11
-0.201791
 21
0.873255
 0
LINE
 8
1
 62
1
 10
-0.201791
 20
0.873255
 11
-0.197965
 21
0.884496
 0
LINE
 8
1
 62
1
 10
-0.197965
 20
0.884496
 11
-0.176983
 21
0.889752
 0
LINE
 8
1
 62
1
 10
-0.176983
 20
0.889752
 11
-0.134704
 21
0.896023
 0
LINE
 8
1
 62
1
 10
-0.134704
 20
0.896023
 11
-0.127292
 21
0.887181
 0
LINE
 8
1
 62
1
 10
-0.127292
 20
0.887181
 11
-0.120271
 21
0.878388
 0
LINE
 8
1
 62
1
 10
-0.120271
 20
0.878388
 11
-0.113723
 21
0.869775
 0
LINE
 8
1
 62
1
 10
-0.113723
 20
0.869775
 11
-0.107637
 21
0.861358
 0
LINE
 8
1
 62
1
 10
-0.107637
 20
0.861358
 11
-0.101998
 21
0.853155
 0
LINE
 8
1
 62
1
 10
-0.101998
 20
0.853155
 11
-0.096792
 21
0.845182
 0
LINE
 8
1
 62
1
 10
-0.096792
 20
0.845182
 11
-0.092004
 21
0.837454
 0
LINE
 8
1
 62
1
 10
-0.092004
 20
0.837454
 11
-0.087620
 21
0.829985
 0
LINE
 8
1
 62
1
 10
-0.087620
 20
0.829985
 11
-0.083624
 21
0.822790
 0
LINE
 8
1
 62
1
 10
-0.083624
 20
0.822790
 11
-0.080000
 21
0.815882
 0
LINE
 8
1
 62
1
 10
-0.080000
 20
0.815882
 11
-0.076732
 21
0.809274
 0
LINE
 8
1
 62
1
 10
-0.076732
 20
0.809274
 11
-0.073803
 21
0.802980
 0
LINE
 8
1
 62
1
 10
-0.073803
 20
0.802980
 11
-0.071196
 21
0.797010
 0
LINE
 8
1
 62
1
 10
-0.071196
 20
0.797010
 11
-0.068893
 21
0.791375
 0
LINE
 8
1
 62
1
 10
-0.068893
 20
0.791375
 11
-0.066878
 21
0.786086
 0
LINE
 8
1
 62
1
 10
-0.066878
 20
0.786086
 11
-0.065131
 21
0.781153
 0
LINE
 8
1
 62
1
 10
-0.065131
 20
0.781153
 11
-0.063635
 21
0.776584
 0
LINE
 8
1
 62
1
 10
-0.063635
 20
0.776584
 11
-0.062370
 21
0.772389
 0
LINE
 8
1
 62
1
 10
-0.062370
 20
0.772389
 11
-0.061319
 21
0.768574
 0
LINE
 8
1
 62
1
 10
-0.061319
 20
0.768574
 11
-0.060462
 21
0.765147
 0
LINE
 8
1
 62
1
 10
-0.060462
 20
0.765147
 11
-0.059779
 21
0.762114
 0
LINE
 8
1
 62
1
 10
-0.059779
 20
0.762114
 11
-0.059252
 21
0.759481
 0
LINE
 8
1
 62
1
 10
-0.059252
 20
0.759481
 11
-0.058860
 21
0.757252
 0
LINE
 8
1
 62
1
 10
-0.058860
 20
0.757252
 11
-0.058585
 21
0.755432
 0
LINE
 8
1
 62
1
 10
-0.058585
 20
0.755432
 11
-0.058297
 21
0.753165
 0
LINE
 8
1
 62
1
 10
-0.058297
 20
0.753165
 11
-0.057325
 21
0.747101
 0
LINE
 8
1
 62
1
 10
-0.057325
 20
0.747101
 11
-0.056102
 21
0.741545
 0
LINE
 8
1
 62
1
 10
-0.056102
 20
0.741545
 11
-0.054651
 21
0.736505
 0
LINE
 8
1
 62
1
 10
-0.054651
 20
0.736505
 11
-0.052998
 21
0.731989
 0
LINE
 8
1
 62
1
 10
-0.052998
 20
0.731989
 11
-0.051168
 21
0.728003
 0
LINE
 8
1
 62
1
 10
-0.051168
 20
0.728003
 11
-0.049186
 21
0.724553
 0
LINE
 8
1
 62
1
 10
-0.049186
 20
0.724553
 11
-0.047077
 21
0.721645
 0
LINE
 8
1
 62
1
 10
-0.047077
 20
0.721645
 11
-0.044866
 21
0.719281
 0
LINE
 8
1
 62
1
 10
-0.044866
 20
0.719281
 11
-0.042580
 21
0.717464
 0
LINE
 8
1
 62
1
 10
-0.042580
 20
0.717464
 11
-0.040243
 21
0.716197
 0
LINE
 8
1
 62
1
 10
-0.040243
 20
0.716197
 11
-0.037883
 21
0.715481
 0
LINE
 8
1
 62
1
 10
-0.037883
 20
0.715481
 11
-0.035523
 21
0.715316
 0
LINE
 8
1
 62
1
 10
-0.035523
 20
0.715316
 11
-0.025330
 21
0.715596
 0
LINE
 8
1
 62
1
 10
-0.025330
 20
0.715596
 11
0.000000
 21
0.715828
 0
LINE
 8
1
 62
1
 10
0.000000
 20
0.715828
 11
0.025330
 21
0.715596
 0
LINE
 8
1
 62
1
 10
0.025330
 20
0.715596
 11
0.035523
 21
0.715316
 0
LINE
 8
1
 62
1
 10
0.035523
 20
0.715316
 11
0.037883
 21
0.715481
 0
LINE
 8
1
 62
1
 10
0.037883
 20
0.715481
 11
0.040243
 21
0.716197
 0
LINE
 8
1
 62
1
 10
0.040243
 20
0.716197
 11
0.042580
 21
0.717464
 0
LINE
 8
1
 62
1
 10
0.042580
 20
0.717464
 11
0.044866
 21
0.719281
 0
LINE
 8
1
 62
1
 10
0.044866
 20
0.719281
 11
0.047077
 21
0.721645
 0
LINE
 8
1
 62
1
 10
0.047077
 20
0.721645
 11
0.049186
 21
0.724553
 0
LINE
 8
1
 62
1
 10
0.049186
 20
0.724553
 11
0.051168
 21
0.728003
 0
LINE
 8
1
 62
1
 10
0.051168
 20
0.728003
 11
0.052998
 21
0.731989
 0
LINE
 8
1
 62
1
 10
0.052998
 20
0.731989
 11
0.054651
 21
0.736505
 0
LINE
 8
1
 62
1
 10
0.054651
 20
0.736505
 11
0.056102
 21
0.741545
 0
LINE
 8
1
 62
1
 10
0.056102
 20
0.741545
 11
0.057325
 21
0.747101
 0
LINE
 8
1
 62
1
 10
0.057325
 20
0.747101
 11
0.058297
 21
0.753165
 0
LINE
 8
1
 62
1
 10
0.058297
 20
0.753165
 11
0.058585
 21
0.755432
 0
LINE
 8
1
 62
1
 10
0.058585
 20
0.755432
 11
0.058860
 21
0.757252
 0
LINE
 8
1
 62
1
 10
0.058860
 20
0.757252
 11
0.059252
 21
0.759481
 0
LINE
 8
1
 62
1
 10
0.059252
 20
0.759481
 11
0.059779
 21
0.762114
 0
LINE
 8
1
 62
1
 10
0.059779
 20
0.762114
 11
0.060462
 21
0.765147
 0
LINE
 8
1
 62
1
 10
0.060462
 20
0.765147
 11
0.061319
 21
0.768574
 0
LINE
 8
1
 62
1
 10
0.061319
 20
0.768574
 11
0.062370
 21
0.772389
 0
LINE
 8
1
 62
1
 10
0.062370
 20
0.772389
 11
0.063635
 21
0.776584
 0
LINE
 8
1
 62
1
 10
0.063635
 20
0.776584
 11
0.065131
 21
0.781153
 0
LINE
 8
1
 62
1
 10
0.065131
 20
0.781153
 11
0.066878
 21
0.786086
 0
LINE
 8
1
 62
1
 10
0.066878
 20
0.786086
 11
0.068893
 21
0.791375
 0
LINE
 8
1
 62
1
 10
0.068893
 20
0.791375
 11
0.071196
 21
0.797010
 0
LINE
 8
1
 62
1
 10
0.071196
 20
0.797010
 11
0.073803
 21
0.802980
 0
LINE
 8
1
 62
1
 10
0.073803
 20
0.802980
 11
0.076732
 21
0.809274
 0
LINE
 8
1
 62
1
 10
0.076732
 20
0.809274
 11
0.080000
 21
0.815882
 0
LINE
 8
1
 62
1
 10
0.080000
 20
0.815882
 11
0.083624
 21
0.822790
 0
LINE
 8
1
 62
1
 10
0.083624
 20
0.822790
 11
0.087620
 21
0.829985
 0
LINE
 8
1
 62
1
 10
0.087620
 20
0.829985
 11
0.092004
 21
0.837454
 0
LINE
 8
1
 62
1
 10
0.092004
 20
0.837454
 11
0.096792
 21
0.845182
 0
LINE
 8
1
 62
1
 10
0.096792
 20
0.845182
 11
0.101998
 21
0.853155
 0
LINE
 8
1
 62
1
 10
0.101998
 20
0.853155
 11
0.107637
 21
0.861358
 0
LINE
 8
1
 62
1
 10
0.107637
 20
0.861358
 11
0.113723
 21
0.869775
 0
LINE
 8
1
 62
1
 10
0.113723
 20
0.869775
 11
0.120271
 21
0.878388
 0
LINE
 8
1
 62
1
 10
0.120271
 20
0.878388
 11
0.127292
 21
0.887181
 0
LINE
 8
1
 62
1
 10
0.127292
 20
0.887181
 11
0.134704
 21
0.896023
 0
LINE
 8
1
 62
1
 10
0.134704
 20
0.896023
 11
0.176983
 21
0.889752
 0
LINE
 8
1
 62
1
 10
0.176983
 20
0.889752
 11
0.197965
 21
0.884496
 0
LINE
 8
1
 62
1
 10
0.197965
 20
0.884496
 11
0.201791
 21
0.873255
 0
LINE
 8
1
 62
1
 10
0.201791
 20
0.873255
 11
0.205161
 21
0.862519
 0
LINE
 8
1
 62
1
 10
0.205161
 20
0.862519
 11
0.208155
 21
0.852122
 0
LINE
 8
1
 62
1
 10
0.208155
 20
0.852122
 11
0.210790
 21
0.842076
 0
LINE
 8
1
 62
1
 10
0.210790
 20
0.842076
 11
0.213085
 21
0.832390
 0
LINE
 8
1
 62
1
 10
0.213085
 20
0.832390
 11
0.215060
 21
0.823074
 0
LINE
 8
1
 62
1
 10
0.215060
 20
0.823074
 11
0.216732
 21
0.814138
 0
LINE
 8
1
 62
1
 10
0.216732
 20
0.814138
 11
0.218122
 21
0.805590
 0
LINE
 8
1
 62
1
 10
0.218122
 20
0.805590
 11
0.219249
 21
0.797437
 0
LINE
 8
1
 62
1
 10
0.219249
 20
0.797437
 11
0.220133
 21
0.789686
 0
LINE
 8
1
 62
1
 10
0.220133
 20
0.789686
 11
0.220793
 21
0.782345
 0
LINE
 8
1
 62
1
 10
0.220793
 20
0.782345
 11
0.221251
 21
0.775417
 0
LINE
 8
1
 62
1
 10
0.221251
 20
0.775417
 11
0.221525
 21
0.768908
 0
LINE
 8
1
 62
1
 10
0.221525
 20
0.768908
 11
0.221636
 21
0.762822
 0
LINE
 8
1
 62
1
 10
0.221636
 20
0.762822
 11
0.221605
 21
0.757163
 0
LINE
 8
1
 62
1
 10
0.221605
 20
0.757163
 11
0.221452
 21
0.751932
 0
LINE
 8
1
 62
1
 10
0.221452
 20
0.751932
 11
0.221197
 21
0.747131
 0
LINE
 8
1
 62
1
 10
0.221197
 20
0.747131
 11
0.220860
 21
0.742762
 0
LINE
 8
1
 62
1
 10
0.220860
 20
0.742762
 11
0.220463
 21
0.738825
 0
LINE
 8
1
 62
1
 10
0.220463
 20
0.738825
 11
0.220024
 21
0.735320
 0
LINE
 8
1
 62
1
 10
0.220024
 20
0.735320
 11
0.219565
 21
0.732245
 0
LINE
 8
1
 62
1
 10
0.219565
 20
0.732245
 11
0.219106
 21
0.729599
 0
LINE
 8
1
 62
1
 10
0.219106
 20
0.729599
 11
0.218666
 21
0.727379
 0
LINE
 8
1
 62
1
 10
0.218666
 20
0.727379
 11
0.218265
 21
0.725582
 0
LINE
 8
1
 62
1
 10
0.218265
 20
0.725582
 11
0.217714
 21
0.723364
 0
LINE
 8
1
 62
1
 10
0.217714
 20
0.723364
 11
0.216430
 21
0.717359
 0
LINE
 8
1
 62
1
 10
0.216430
 20
0.717359
 11
0.215564
 21
0.711736
 0
LINE
 8
1
 62
1
 10
0.215564
 20
0.711736
 11
0.215096
 21
0.706513
 0
LINE
 8
1
 62
1
 10
0.215096
 20
0.706513
 11
0.215005
 21
0.701704
 0
LINE
 8
1
 62
1
 10
0.215005
 20
0.701704
 11
0.215272
 21
0.697327
 0
LINE
 8
1
 62
1
 10
0.215272
 20
0.697327
 11
0.215874
 21
0.693394
 0
LINE
 8
1
 62
1
 10
0.215874
 20
0.693394
 11
0.216790
 21
0.689920
 0
LINE
 8
1
 62
1
 10
0.216790
 20
0.689920
 11
0.217998
 21
0.686917
 0
LINE
 8
1
 62
1
 10
0.217998
 20
0.686917
 11
0.219473
 21
0.684397
 0
LINE
 8
1
 62
1
 10
0.219473
 20
0.684397
 11
0.221194
 21
0.682372
 0
LINE
 8
1
 62
1
 10
0.221194
 20
0.682372
 11
0.223137
 21
0.680851
 0
LINE
 8
1
 62
1
 10
0.223137
 20
0.680851
 11
0.225278
 21
0.679844
 0
LINE
 8
1
 62
1
 10
0.225278
 20
0.679844
 11
0.234884
 21
0.676424
 0
LINE
 8
1
 62
1
 10
0.234884
 20
0.676424
 11
0.258587
 21
0.667490
 0
LINE
 8
1
 62
1
 10
0.258587
 20
0.667490
 11
0.282122
 21
0.658123
 0
LINE
 8
1
 62
1
 10
0.282122
 20
0.658123
 11
0.291526
 21
0.654180
 0
LINE
 8
1
 62
1
 10
0.291526
 20
0.654180
 11
0.293786
 21
0.653482
 0
LINE
 8
1
 62
1
 10
0.293786
 20
0.653482
 11
0.296246
 21
0.653296
 0
LINE
 8
1
 62
1
 10
0.296246
 20
0.653296
 11
0.298882
 21
0.653634
 0
LINE
 8
1
 62
1
 10
0.298882
 20
0.653634
 11
0.301671
 21
0.654502
 0
LINE
 8
1
 62
1
 10
0.301671
 20
0.654502
 11
0.304586
 21
0.655908
 0
LINE
 8
1
 62
1
 10
0.304586
 20
0.655908
 11
0.307603
 21
0.657858
 0
LINE
 8
1
 62
1
 10
0.307603
 20
0.657858
 11
0.310698
 21
0.660359
 0
LINE
 8
1
 62
1
 10
0.310698
 20
0.660359
 11
0.313844
 21
0.663414
 0
LINE
 8
1
 62
1
 10
0.313844
 20
0.663414
 11
0.317017
 21
0.667028
 0
LINE
 8
1
 62
1
 10
0.317017
 20
0.667028
 11
0.320190
 21
0.671204
 0
LINE
 8
1
 62
1
 10
0.320190
 20
0.671204
 11
0.323338
 21
0.675942
 0
LINE
 8
1
 62
1
 10
0.323338
 20
0.675942
 11
0.326435
 21
0.681246
 0
LINE
 8
1
 62
1
 10
0.326435
 20
0.681246
 11
0.327522
 21
0.683256
 0
LINE
 8
1
 62
1
 10
0.327522
 20
0.683256
 11
0.328436
 21
0.684854
 0
LINE
 8
1
 62
1
 10
0.328436
 20
0.684854
 11
0.329607
 21
0.686791
 0
LINE
 8
1
 62
1
 10
0.329607
 20
0.686791
 11
0.331050
 21
0.689056
 0
LINE
 8
1
 62
1
 10
0.331050
 20
0.689056
 11
0.332782
 21
0.691637
 0
LINE
 8
1
 62
1
 10
0.332782
 20
0.691637
 11
0.334819
 21
0.694523
 0
LINE
 8
1
 62
1
 10
0.334819
 20
0.694523
 11
0.337178
 21
0.697701
 0
LINE
 8
1
 62
1
 10
0.337178
 20
0.697701
 11
0.339872
 21
0.701156
 0
LINE
 8
1
 62
1
 10
0.339872
 20
0.701156
 11
0.342918
 21
0.704875
 0
LINE
 8
1
 62
1
 10
0.342918
 20
0.704875
 11
0.346329
 21
0.708844
 0
LINE
 8
1
 62
1
 10
0.346329
 20
0.708844
 11
0.350119
 21
0.713048
 0
LINE
 8
1
 62
1
 10
0.350119
 20
0.713048
 11
0.354301
 21
0.717470
 0
LINE
 8
1
 62
1
 10
0.354301
 20
0.717470
 11
0.358889
 21
0.722096
 0
LINE
 8
1
 62
1
 10
0.358889
 20
0.722096
 11
0.363894
 21
0.726907
 0
LINE
 8
1
 62
1
 10
0.363894
 20
0.726907
 11
0.369328
 21
0.731888
 0
LINE
 8
1
 62
1
 10
0.369328
 20
0.731888
 11
0.375203
 21
0.737020
 0
LINE
 8
1
 62
1
 10
0.375203
 20
0.737020
 11
0.381528
 21
0.742286
 0
LINE
 8
1
 62
1
 10
0.381528
 20
0.742286
 11
0.388314
 21
0.747667
 0
LINE
 8
1
 62
1
 10
0.388314
 20
0.747667
 11
0.395570
 21
0.753144
 0
LINE
 8
1
 62
1
 10
0.395570
 20
0.753144
 11
0.403305
 21
0.758698
 0
LINE
 8
1
 62
1
 10
0.403305
 20
0.758698
 11
0.411527
 21
0.764310
 0
LINE
 8
1
 62
1
 10
0.411527
 20
0.764310
 11
0.420243
 21
0.769959
 0
LINE
 8
1
 62
1
 10
0.420243
 20
0.769959
 11
0.429459
 21
0.775625
 0
LINE
 8
1
 62
1
 10
0.429459
 20
0.775625
 11
0.439183
 21
0.781289
 0
LINE
 8
1
 62
1
 10
0.439183
 20
0.781289
 11
0.449492
 21
0.786968
 0
LINE
 8
1
 62
1
 10
0.449492
 20
0.786968
 11
0.504004
 21
0.754295
 0
LINE
 8
1
 62
1
 10
0.504004
 20
0.754295
 11
0.504152
 21
0.754185
 0
LINE
 8
1
 62
1
 10
0.504152
 20
0.754185
 11
0.503620
 21
0.741391
 0
LINE
 8
1
 62
1
 10
0.503620
 20
0.741391
 11
0.502885
 21
0.730162
 0
LINE
 8
1
 62
1
 10
0.502885
 20
0.730162
 11
0.501921
 21
0.719386
 0
LINE
 8
1
 62
1
 10
0.501921
 20
0.719386
 11
0.500749
 21
0.709066
 0
LINE
 8
1
 62
1
 10
0.500749
 20
0.709066
 11
0.499390
 21
0.699205
 0
LINE
 8
1
 62
1
 10
0.499390
 20
0.699205
 11
0.497866
 21
0.689805
 0
LINE
 8
1
 62
1
 10
0.497866
 20
0.689805
 11
0.496197
 21
0.680868
 0
LINE
 8
1
 62
1
 10
0.496197
 20
0.680868
 11
0.494405
 21
0.672395
 0
LINE
 8
1
 62
1
 10
0.494405
 20
0.672395
 11
0.492511
 21
0.664386
 0
LINE
 8
1
 62
1
 10
0.492511
 20
0.664386
 11
0.490535
 21
0.656839
 0
LINE
 8
1
 62
1
 10
0.490535
 20
0.656839
 11
0.488499
 21
0.649755
 0
LINE
 8
1
 62
1
 10
0.488499
 20
0.649755
 11
0.486423
 21
0.643130
 0
LINE
 8
1
 62
1
 10
0.486423
 20
0.643130
 11
0.484328
 21
0.636962
 0
LINE
 8
1
 62
1
 10
0.484328
 20
0.636962
 11
0.482233
 21
0.631246
 0
LINE
 8
1
 62
1
 10
0.482233
 20
0.631246
 11
0.480159
 21
0.625980
 0
LINE
 8
1
 62
1
 10
0.480159
 20
0.625980
 11
0.478127
 21
0.621158
 0
LINE
 8
1
 62
1
 10
0.478127
 20
0.621158
 11
0.476155
 21
0.616773
 0
LINE
 8
1
 62
1
 10
0.476155
 20
0.616773
 11
0.474263
 21
0.612821
 0
LINE
 8
1
 62
1
 10
0.474263
 20
0.612821
 11
0.472470
 21
0.609294
 0
LINE
 8
1
 62
1
 10
0.472470
 20
0.609294
 11
0.470795
 21
0.606183
 0
LINE
 8
1
 62
1
 10
0.470795
 20
0.606183
 11
0.469256
 21
0.603482
 0
LINE
 8
1
 62
1
 10
0.469256
 20
0.603482
 11
0.467872
 21
0.601181
 0
LINE
 8
1
 62
1
 10
0.467872
 20
0.601181
 11
0.466659
 21
0.599270
 0
LINE
 8
1
 62
1
 10
0.466659
 20
0.599270
 11
0.465636
 21
0.597739
 0
LINE
 8
1
 62
1
 10
0.465636
 20
0.597739
 11
0.464322
 21
0.595870
 0
LINE
 8
1
 62
1
 10
0.464322
 20
0.595870
 11
0.460955
 21
0.590734
 0
LINE
 8
1
 62
1
 10
0.460955
 20
0.590734
 11
0.458116
 21
0.585804
 0
LINE
 8
1
 62
1
 10
0.458116
 20
0.585804
 11
0.455792
 21
0.581102
 0
LINE
 8
1
 62
1
 10
0.455792
 20
0.581102
 11
0.453971
 21
0.576651
 0
LINE
 8
1
 62
1
 10
0.453971
 20
0.576651
 11
0.452639
 21
0.572473
 0
LINE
 8
1
 62
1
 10
0.452639
 20
0.572473
 11
0.451780
 21
0.568588
 0
LINE
 8
1
 62
1
 10
0.451780
 20
0.568588
 11
0.451379
 21
0.565017
 0
LINE
 8
1
 62
1
 10
0.451379
 20
0.565017
 11
0.451420
 21
0.561781
 0
LINE
 8
1
 62
1
 10
0.451420
 20
0.561781
 11
0.451886
 21
0.558898
 0
LINE
 8
1
 62
1
 10
0.451886
 20
0.558898
 11
0.452759
 21
0.556388
 0
LINE
 8
1
 62
1
 10
0.452759
 20
0.556388
 11
0.454021
 21
0.554268
 0
LINE
 8
1
 62
1
 10
0.454021
 20
0.554268
 11
0.455653
 21
0.552556
 0
LINE
 8
1
 62
1
 10
0.455653
 20
0.552556
 11
0.463375
 21
0.545896
 0
LINE
 8
1
 62
1
 10
0.463375
 20
0.545896
 11
0.482250
 21
0.529004
 0
LINE
 8
1
 62
1
 10
0.482250
 20
0.529004
 11
0.500813
 21
0.511768
 0
LINE
 8
1
 62
1
 10
0.500813
 20
0.511768
 11
0.508157
 21
0.504693
 0
LINE
 8
1
 62
1
 10
0.508157
 20
0.504693
 11
0.510012
 21
0.503226
 0
LINE
 8
1
 62
1
 10
0.510012
 20
0.503226
 11
0.512239
 21
0.502164
 0
LINE
 8
1
 62
1
 10
0.512239
 20
0.502164
 11
0.514819
 21
0.501527
 0
LINE
 8
1
 62
1
 10
0.514819
 20
0.501527
 11
0.517733
 21
0.501329
 0
LINE
 8
1
 62
1
 10
0.517733
 20
0.501329
 11
0.520959
 21
0.501586
 0
LINE
 8
1
 62
1
 10
0.520959
 20
0.501586
 11
0.524477
 21
0.502315
 0
LINE
 8
1
 62
1
 10
0.524477
 20
0.502315
 11
0.528266
 21
0.503529
 0
LINE
 8
1
 62
1
 10
0.528266
 20
0.503529
 11
0.532304
 21
0.505242
 0
LINE
 8
1
 62
1
 10
0.532304
 20
0.505242
 11
0.536568
 21
0.507465
 0
LINE
 8
1
 62
1
 10
0.536568
 20
0.507465
 11
0.541035
 21
0.510213
 0
LINE
 8
1
 62
1
 10
0.541035
 20
0.510213
 11
0.545682
 21
0.513494
 0
LINE
 8
1
 62
1
 10
0.545682
 20
0.513494
 11
0.550486
 21
0.517321
 0
LINE
 8
1
 62
1
 10
0.550486
 20
0.517321
 11
0.552226
 21
0.518802
 0
LINE
 8
1
 62
1
 10
0.552226
 20
0.518802
 11
0.553656
 21
0.519962
 0
LINE
 8
1
 62
1
 10
0.553656
 20
0.519962
 11
0.555447
 21
0.521346
 0
LINE
 8
1
 62
1
 10
0.555447
 20
0.521346
 11
0.557610
 21
0.522937
 0
LINE
 8
1
 62
1
 10
0.557610
 20
0.522937
 11
0.560158
 21
0.524718
 0
LINE
 8
1
 62
1
 10
0.560158
 20
0.524718
 11
0.563100
 21
0.526673
 0
LINE
 8
1
 62
1
 10
0.563100
 20
0.526673
 11
0.566447
 21
0.528784
 0
LINE
 8
1
 62
1
 10
0.566447
 20
0.528784
 11
0.570208
 21
0.531032
 0
LINE
 8
1
 62
1
 10
0.570208
 20
0.531032
 11
0.574392
 21
0.533400
 0
LINE
 8
1
 62
1
 10
0.574392
 20
0.533400
 11
0.579006
 21
0.535869
 0
LINE
 8
1
 62
1
 10
0.579006
 20
0.535869
 11
0.584059
 21
0.538420
 0
LINE
 8
1
 62
1
 10
0.584059
 20
0.538420
 11
0.589556
 21
0.541033
 0
LINE
 8
1
 62
1
 10
0.589556
 20
0.541033
 11
0.595505
 21
0.543689
 0
LINE
 8
1
 62
1
 10
0.595505
 20
0.543689
 11
0.601910
 21
0.546367
 0
LINE
 8
1
 62
1
 10
0.601910
 20
0.546367
 11
0.608777
 21
0.549048
 0
LINE
 8
1
 62
1
 10
0.608777
 20
0.549048
 11
0.616108
 21
0.551712
 0
LINE
 8
1
 62
1
 10
0.616108
 20
0.551712
 11
0.623909
 21
0.554337
 0
LINE
 8
1
 62
1
 10
0.623909
 20
0.554337
 11
0.632181
 21
0.556903
 0
LINE
 8
1
 62
1
 10
0.632181
 20
0.556903
 11
0.640925
 21
0.559389
 0
LINE
 8
1
 62
1
 10
0.640925
 20
0.559389
 11
0.650144
 21
0.561774
 0
LINE
 8
1
 62
1
 10
0.650144
 20
0.561774
 11
0.659838
 21
0.564037
 0
LINE
 8
1
 62
1
 10
0.659838
 20
0.564037
 11
0.670006
 21
0.566156
 0
LINE
 8
1
 62
1
 10
0.670006
 20
0.566156
 11
0.680647
 21
0.568111
 0
LINE
 8
1
 62
1
 10
0.680647
 20
0.568111
 11
0.691760
 21
0.569879
 0
LINE
 8
1
 62
1
 10
0.691760
 20
0.569879
 11
0.704196
 21
0.571555
 0
LINE
 8
1
 62
1
 10
0.704196
 20
0.571555
 11
0.742195
 21
0.520319
 0
LINE
 8
1
 62
1
 10
0.742195
 20
0.520319
 11
0.737433
 21
0.509397
 0
LINE
 8
1
 62
1
 10
0.737433
 20
0.509397
 11
0.732691
 21
0.499193
 0
LINE
 8
1
 62
1
 10
0.732691
 20
0.499193
 11
0.727899
 21
0.489493
 0
LINE
 8
1
 62
1
 10
0.727899
 20
0.489493
 11
0.723078
 21
0.480293
 0
LINE
 8
1
 62
1
 10
0.723078
 20
0.480293
 11
0.718249
 21
0.471589
 0
LINE
 8
1
 62
1
 10
0.718249
 20
0.471589
 11
0.713432
 21
0.463374
 0
LINE
 8
1
 62
1
 10
0.713432
 20
0.463374
 11
0.708648
 21
0.455644
 0
LINE
 8
1
 62
1
 10
0.708648
 20
0.455644
 11
0.703916
 21
0.448390
 0
LINE
 8
1
 62
1
 10
0.703916
 20
0.448390
 11
0.699257
 21
0.441606
 0
LINE
 8
1
 62
1
 10
0.699257
 20
0.441606
 11
0.694688
 21
0.435283
 0
LINE
 8
1
 62
1
 10
0.694688
 20
0.435283
 11
0.690230
 21
0.429412
 0
LINE
 8
1
 62
1
 10
0.690230
 20
0.429412
 11
0.685901
 21
0.423984
 0
LINE
 8
1
 62
1
 10
0.685901
 20
0.423984
 11
0.681719
 21
0.418990
 0
LINE
 8
1
 62
1
 10
0.681719
 20
0.418990
 11
0.677701
 21
0.414417
 0
LINE
 8
1
 62
1
 10
0.677701
 20
0.414417
 11
0.673865
 21
0.410255
 0
LINE
 8
1
 62
1
 10
0.673865
 20
0.410255
 11
0.670228
 21
0.406493
 0
LINE
 8
1
 62
1
 10
0.670228
 20
0.406493
 11
0.666805
 21
0.403117
 0
LINE
 8
1
 62
1
 10
0.666805
 20
0.403117
 11
0.663613
 21
0.400115
 0
LINE
 8
1
 62
1
 10
0.663613
 20
0.400115
 11
0.660667
 21
0.397474
 0
LINE
 8
1
 62
1
 10
0.660667
 20
0.397474
 11
0.657982
 21
0.395178
 0
LINE
 8
1
 62
1
 10
0.657982
 20
0.395178
 11
0.655571
 21
0.393215
 0
LINE
 8
1
 62
1
 10
0.655571
 20
0.393215
 11
0.653449
 21
0.391570
 0
LINE
 8
1
 62
1
 10
0.653449
 20
0.391570
 11
0.651628
 21
0.390226
 0
LINE
 8
1
 62
1
 10
0.651628
 20
0.390226
 11
0.650121
 21
0.389168
 0
LINE
 8
1
 62
1
 10
0.650121
 20
0.389168
 11
0.648220
 21
0.387900
 0
LINE
 8
1
 62
1
 10
0.648220
 20
0.387900
 11
0.643225
 21
0.384327
 0
LINE
 8
1
 62
1
 10
0.643225
 20
0.384327
 11
0.638797
 21
0.380755
 0
LINE
 8
1
 62
1
 10
0.638797
 20
0.380755
 11
0.634932
 21
0.377210
 0
LINE
 8
1
 62
1
 10
0.634932
 20
0.377210
 11
0.631626
 21
0.373718
 0
LINE
 8
1
 62
1
 10
0.631626
 20
0.373718
 11
0.628874
 21
0.370303
 0
LINE
 8
1
 62
1
 10
0.628874
 20
0.370303
 11
0.626670
 21
0.366991
 0
LINE
 8
1
 62
1
 10
0.626670
 20
0.366991
 11
0.625006
 21
0.363806
 0
LINE
 8
1
 62
1
 10
0.625006
 20
0.363806
 11
0.623875
 21
0.360773
 0
LINE
 8
1
 62
1
 10
0.623875
 20
0.360773
 11
0.623268
 21
0.357917
 0
LINE
 8
1
 62
1
 10
0.623268
 20
0.357917
 11
0.623175
 21
0.355261
 0
LINE
 8
1
 62
1
 10
0.623175
 20
0.355261
 11
0.623587
 21
0.352828
 0
LINE
 8
1
 62
1
 10
0.623587
 20
0.352828
 11
0.624490
 21
0.350643
 0
LINE
 8
1
 62
1
 10
0.624490
 20
0.350643
 11
0.629285
 21
0.341643
 0
LINE
 8
1
 62
1
 10
0.629285
 20
0.341643
 11
0.640783
 21
0.319072
 0
LINE
 8
1
 62
1
 10
0.640783
 20
0.319072
 11
0.651866
 21
0.296295
 0
LINE
 8
1
 62
1
 10
0.651866
 20
0.296295
 11
0.656158
 21
0.287045
 0
LINE
 8
1
 62
1
 10
0.656158
 20
0.287045
 11
0.657358
 21
0.285006
 0
LINE
 8
1
 62
1
 10
0.657358
 20
0.285006
 11
0.659052
 21
0.283212
 0
LINE
 8
1
 62
1
 10
0.659052
 20
0.283212
 11
0.661227
 21
0.281685
 0
LINE
 8
1
 62
1
 10
0.661227
 20
0.281685
 11
0.663872
 21
0.280448
 0
LINE
 8
1
 62
1
 10
0.663872
 20
0.280448
 11
0.666974
 21
0.279523
 0
LINE
 8
1
 62
1
 10
0.666974
 20
0.279523
 11
0.670518
 21
0.278932
 0
LINE
 8
1
 62
1
 10
0.670518
 20
0.278932
 11
0.674489
 21
0.278695
 0
LINE
 8
1
 62
1
 10
0.674489
 20
0.278695
 11
0.678873
 21
0.278833
 0
LINE
 8
1
 62
1
 10
0.678873
 20
0.278833
 11
0.683652
 21
0.279367
 0
LINE
 8
1
 62
1
 10
0.683652
 20
0.279367
 11
0.688810
 21
0.280315
 0
LINE
 8
1
 62
1
 10
0.688810
 20
0.280315
 11
0.694329
 21
0.281696
 0
LINE
 8
1
 62
1
 10
0.694329
 20
0.281696
 11
0.700190
 21
0.283529
 0
LINE
 8
1
 62
1
 10
0.700190
 20
0.283529
 11
0.702348
 21
0.284282
 0
LINE
 8
1
 62
1
 10
0.702348
 20
0.284282
 11
0.704101
 21
0.284847
 0
LINE
 8
1
 62
1
 10
0.704101
 20
0.284847
 11
0.706270
 21
0.285490
 0
LINE
 8
1
 62
1
 10
0.706270
 20
0.285490
 11
0.708863
 21
0.286192
 0
LINE
 8
1
 62
1
 10
0.708863
 20
0.286192
 11
0.711882
 21
0.286933
 0
LINE
 8
1
 62
1
 10
0.711882
 20
0.286933
 11
0.715332
 21
0.287693
 0
LINE
 8
1
 62
1
 10
0.715332
 20
0.287693
 11
0.719215
 21
0.288452
 0
LINE
 8
1
 62
1
 10
0.719215
 20
0.288452
 11
0.723534
 21
0.289190
 0
LINE
 8
1
 62
1
 10
0.723534
 20
0.289190
 11
0.728291
 21
0.289887
 0
LINE
 8
1
 62
1
 10
0.728291
 20
0.289887
 11
0.733485
 21
0.290522
 0
LINE
 8
1
 62
1
 10
0.733485
 20
0.290522
 11
0.739118
 21
0.291075
 0
LINE
 8
1
 62
1
 10
0.739118
 20
0.291075
 11
0.745188
 21
0.291526
 0
LINE
 8
1
 62
1
 10
0.745188
 20
0.291526
 11
0.751695
 21
0.291853
 0
LINE
 8
1
 62
1
 10
0.751695
 20
0.291853
 11
0.758635
 21
0.292037
 0
LINE
 8
1
 62
1
 10
0.758635
 20
0.292037
 11
0.766006
 21
0.292057
 0
LINE
 8
1
 62
1
 10
0.766006
 20
0.292057
 11
0.773805
 21
0.291892
 0
LINE
 8
1
 62
1
 10
0.773805
 20
0.291892
 11
0.782027
 21
0.291522
 0
LINE
 8
1
 62
1
 10
0.782027
 20
0.291522
 11
0.790667
 21
0.290927
 0
LINE
 8
1
 62
1
 10
0.790667
 20
0.290927
 11
0.799720
 21
0.290086
 0
LINE
 8
1
 62
1
 10
0.799720
 20
0.290086
 11
0.809178
 21
0.288980
 0
LINE
 8
1
 62
1
 10
0.809178
 20
0.288980
 11
0.819034
 21
0.287588
 0
LINE
 8
1
 62
1
 10
0.819034
 20
0.287588
 11
0.829281
 21
0.285891
 0
LINE
 8
1
 62
1
 10
0.829281
 20
0.285891
 11
0.839910
 21
0.283869
 0
LINE
 8
1
 62
1
 10
0.839910
 20
0.283869
 11
0.850911
 21
0.281504
 0
LINE
 8
1
 62
1
 10
0.850911
 20
0.281504
 11
0.862628
 21
0.278690
 0
LINE
 8
1
 62
1
 10
0.862628
 20
0.278690
 11
0.868120
 21
0.263341
 0
LINE
 8
1
 62
1
 10
0.868120
 20
0.263341
 11
0.879776
 21
0.216808
 0
LINE
 8
1
 62
1
 10
0.879776
 20
0.216808
 11
0.871652
 21
0.208607
 0
LINE
 8
1
 62
1
 10
0.871652
 20
0.208607
 11
0.863544
 21
0.200805
 0
LINE
 8
1
 62
1
 10
0.863544
 20
0.200805
 11
0.855571
 21
0.193491
 0
LINE
 8
1
 62
1
 10
0.855571
 20
0.193491
 11
0.847752
 21
0.186654
 0
LINE
 8
1
 62
1
 10
0.847752
 20
0.186654
 11
0.840105
 21
0.180282
 0
LINE
 8
1
 62
1
 10
0.840105
 20
0.180282
 11
0.832646
 21
0.174362
 0
LINE
 8
1
 62
1
 10
0.832646
 20
0.174362
 11
0.825392
 21
0.168882
 0
LINE
 8
1
 62
1
 10
0.825392
 20
0.168882
 11
0.818360
 21
0.163827
 0
LINE
 8
1
 62
1
 10
0.818360
 20
0.163827
 11
0.811564
 21
0.159185
 0
LINE
 8
1
 62
1
 10
0.811564
 20
0.159185
 11
0.805020
 21
0.154939
 0
LINE
 8
1
 62
1
 10
0.805020
 20
0.154939
 11
0.798742
 21
0.151075
 0
LINE
 8
1
 62
1
 10
0.798742
 20
0.151075
 11
0.792745
 21
0.147578
 0
LINE
 8
1
 62
1
 10
0.792745
 20
0.147578
 11
0.787041
 21
0.144431
 0
LINE
 8
1
 62
1
 10
0.787041
 20
0.144431
 11
0.781642
 21
0.141618
 0
LINE
 8
1
 62
1
 10
0.781642
 20
0.141618
 11
0.776562
 21
0.139123
 0
LINE
 8
1
 62
1
 10
0.776562
 20
0.139123
 11
0.771811
 21
0.136929
 0
LINE
 8
1
 62
1
 10
0.771811
 20
0.136929
 11
0.767400
 21
0.135018
 0
LINE
 8
1
 62
1
 10
0.767400
 20
0.135018
 11
0.763339
 21
0.133371
 0
LINE
 8
1
 62
1
 10
0.763339
 20
0.133371
 11
0.759638
 21
0.131972
 0
LINE
 8
1
 62
1
 10
0.759638
 20
0.131972
 11
0.756305
 21
0.130803
 0
LINE
 8
1
 62
1
 10
0.756305
 20
0.130803
 11
0.753348
 21
0.129843
 0
LINE
 8
1
 62
1
 10
0.753348
 20
0.129843
 11
0.750774
 21
0.129075
 0
LINE
 8
1
 62
1
 10
0.750774
 20
0.129075
 11
0.748591
 21
0.128480
 0
LINE
 8
1
 62
1
 10
0.748591
 20
0.128480
 11
0.746804
 21
0.128037
 0
LINE
 8
1
 62
1
 10
0.746804
 20
0.128037
 11
0.744573
 21
0.127542
 0
LINE
 8
1
 62
1
 10
0.744573
 20
0.127542
 11
0.738624
 21
0.126014
 0
LINE
 8
1
 62
1
 10
0.738624
 20
0.126014
 11
0.733205
 21
0.124283
 0
LINE
 8
1
 62
1
 10
0.733205
 20
0.124283
 11
0.728321
 21
0.122374
 0
LINE
 8
1
 62
1
 10
0.728321
 20
0.122374
 11
0.723976
 21
0.120312
 0
LINE
 8
1
 62
1
 10
0.723976
 20
0.120312
 11
0.720176
 21
0.118122
 0
LINE
 8
1
 62
1
 10
0.720176
 20
0.118122
 11
0.716924
 21
0.115829
 0
LINE
 8
1
 62
1
 10
0.716924
 20
0.115829
 11
0.714223
 21
0.113461
 0
LINE
 8
1
 62
1
 10
0.714223
 20
0.113461
 11
0.712073
 21
0.111042
 0
LINE
 8
1
 62
1
 10
0.712073
 20
0.111042
 11
0.710475
 21
0.108597
 0
LINE
 8
1
 62
1
 10
0.710475
 20
0.108597
 11
0.709429
 21
0.106154
 0
LINE
 8
1
 62
1
 10
0.709429
 20
0.106154
 11
0.708934
 21
0.103737
 0
LINE
 8
1
 62
1
 10
0.708934
 20
0.103737
 11
0.708987
 21
0.101372
 0
LINE
 8
1
 62
1
 10
0.708987
 20
0.101372
 11
0.710206
 21
0.091248
 0
LINE
 8
1
 62
1
 10
0.710206
 20
0.091248
 11
0.712775
 21
0.066048
 0
LINE
 8
1
 62
1
 10
0.712775
 20
0.066048
 11
0.714881
 21
0.040805
 0
LINE
 8
1
 62
1
 10
0.714881
 20
0.040805
 11
0.715542
 21
0.030630
 0
LINE
 8
1
 62
1
 10
0.715542
 20
0.030630
 11
0.715924
 21
0.028295
 0
LINE
 8
1
 62
1
 10
0.715924
 20
0.028295
 11
0.716855
 21
0.026011
 0
LINE
 8
1
 62
1
 10
0.716855
 20
0.026011
 11
0.718332
 21
0.023801
 0
LINE
 8
1
 62
1
 10
0.718332
 20
0.023801
 11
0.720352
 21
0.021692
 0
LINE
 8
1
 62
1
 10
0.720352
 20
0.021692
 11
0.722910
 21
0.019709
 0
LINE
 8
1
 62
1
 10
0.722910
 20
0.019709
 11
0.726001
 21
0.017877
 0
LINE
 8
1
 62
1
 10
0.726001
 20
0.017877
 11
0.729619
 21
0.016222
 0
LINE
 8
1
 62
1
 10
0.729619
 20
0.016222
 11
0.733756
 21
0.014767
 0
LINE
 8
1
 62
1
 10
0.733756
 20
0.014767
 11
0.738406
 21
0.013538
 0
LINE
 8
1
 62
1
 10
0.738406
 20
0.013538
 11
0.743558
 21
0.012559
 0
LINE
 8
1
 62
1
 10
0.743558
 20
0.012559
 11
0.749203
 21
0.011853
 0
LINE
 8
1
 62
1
 10
0.749203
 20
0.011853
 11
0.755331
 21
0.011445
 0
LINE
 8
1
 62
1
 10
0.755331
 20
0.011445
 11
0.757615
 21
0.011367
 0
LINE
 8
1
 62
1
 10
0.757615
 20
0.011367
 11
0.759453
 21
0.011261
 0
LINE
 8
1
 62
1
 10
0.759453
 20
0.011261
 11
0.761708
 21
0.011077
 0
LINE
 8
1
 62
1
 10
0.761708
 20
0.011077
 11
0.764379
 21
0.010795
 0
LINE
 8
1
 62
1
 10
0.764379
 20
0.010795
 11
0.767462
 21
0.010395
 0
LINE
 8
1
 62
1
 10
0.767462
 20
0.010395
 11
0.770954
 21
0.009858
 0
LINE
 8
1
 62
1
 10
0.770954
 20
0.009858
 11
0.774849
 21
0.009163
 0
LINE
 8
1
 62
1
 10
0.774849
 20
0.009163
 11
0.779143
 21
0.008291
 0
LINE
 8
1
 62
1
 10
0.779143
 20
0.008291
 11
0.783830
 21
0.007222
 0
LINE
 8
1
 62
1
 10
0.783830
 20
0.007222
 11
0.788904
 21
0.005938
 0
LINE
 8
1
 62
1
 10
0.788904
 20
0.005938
 11
0.794356
 21
0.004419
 0
LINE
 8
1
 62
1
 10
0.794356
 20
0.004419
 11
0.800179
 21
0.002647
 0
LINE
 8
1
 62
1
 10
0.800179
 20
0.002647
 11
0.806364
 21
0.000602
 0
LINE
 8
1
 62
1
 10
0.806364
 20
0.000602
 11
0.812902
 21
-0.001734
 0
LINE
 8
1
 62
1
 10
0.812902
 20
-0.001734
 11
0.819783
 21
-0.004379
 0
LINE
 8
1
 62
1
 10
0.819783
 20
-0.004379
 11
0.826995
 21
-0.007350
 0
LINE
 8
1
 62
1
 10
0.826995
 20
-0.007350
 11
0.834529
 21
-0.010665
 0
LINE
 8
1
 62
1
 10
0.834529
 20
-0.010665
 11
0.842370
 21
-0.014341
 0
LINE
 8
1
 62
1
 10
0.842370
 20
-0.014341
 11
0.850508
 21
-0.018395
 0
LINE
 8
1
 62
1
 10
0.850508
 20
-0.018395
 11
0.858927
 21
-0.022843
 0
LINE
 8
1
 62
1
 10
0.858927
 20
-0.022843
 11
0.867615
 21
-0.027702
 0
LINE
 8
1
 62
1
 10
0.867615
 20
-0.027702
 11
0.876557
 21
-0.032986
 0
LINE
 8
1
 62
1
 10
0.876557
 20
-0.032986
 11
0.885738
 21
-0.038710
 0
LINE
 8
1
 62
1
 10
0.885738
 20
-0.038710
 11
0.895141
 21
-0.044890
 0
LINE
 8
1
 62
1
 10
0.895141
 20
-0.044890
 11
0.904655
 21
-0.051472
 0
LINE
 8
1
 62
1
 10
0.904655
 20
-0.051472
 11
0.902815
 21
-0.088920
 0
LINE
 8
1
 62
1
 10
0.902815
 20
-0.088920
 11
0.898862
 21
-0.115566
 0
LINE
 8
1
 62
1
 10
0.898862
 20
-0.115566
 11
0.888149
 21
-0.120356
 0
LINE
 8
1
 62
1
 10
0.888149
 20
-0.120356
 11
0.877770
 21
-0.124703
 0
LINE
 8
1
 62
1
 10
0.877770
 20
-0.124703
 11
0.867693
 21
-0.128643
 0
LINE
 8
1
 62
1
 10
0.867693
 20
-0.128643
 11
0.857933
 21
-0.132194
 0
LINE
 8
1
 62
1
 10
0.857933
 20
-0.132194
 11
0.848500
 21
-0.135373
 0
LINE
 8
1
 62
1
 10
0.848500
 20
-0.135373
 11
0.839406
 21
-0.138199
 0
LINE
 8
1
 62
1
 10
0.839406
 20
-0.138199
 11
0.830662
 21
-0.140688
 0
LINE
 8
1
 62
1
 10
0.830662
 20
-0.140688
 11
0.822279
 21
-0.142861
 0
LINE
 8
1
 62
1
 10
0.822279
 20
-0.142861
 11
0.814265
 21
-0.144736
 0
LINE
 8
1
 62
1
 10
0.814265
 20
-0.144736
 11
0.806629
 21
-0.146331
 0
LINE
 8
1
 62
1
 10
0.806629
 20
-0.146331
 11
0.799380
 21
-0.147666
 0
LINE
 8
1
 62
1
 10
0.799380
 20
-0.147666
 11
0.792524
 21
-0.148760
 0
LINE
 8
1
 62
1
 10
0.792524
 20
-0.148760
 11
0.786068
 21
-0.149634
 0
LINE
 8
1
 62
1
 10
0.786068
 20
-0.149634
 11
0.780018
 21
-0.150307
 0
LINE
 8
1
 62
1
 10
0.780018
 20
-0.150307
 11
0.774380
 21
-0.150798
 0
LINE
 8
1
 62
1
 10
0.774380
 20
-0.150798
 11
0.769157
 21
-0.151128
 0
LINE
 8
1
 62
1
 10
0.769157
 20
-0.151128
 11
0.764353
 21
-0.151317
 0
LINE
 8
1
 62
1
 10
0.764353
 20
-0.151317
 11
0.759972
 21
-0.151385
 0
LINE
 8
1
 62
1
 10
0.759972
 20
-0.151385
 11
0.756015
 21
-0.151352
 0
LINE
 8
1
 62
1
 10
0.756015
 20
-0.151352
 11
0.752484
 21
-0.151239
 0
LINE
 8
1
 62
1
 10
0.752484
 20
-0.151239
 11
0.749380
 21
-0.151066
 0
LINE
 8
1
 62
1
 10
0.749380
 20
-0.151066
 11
0.746703
 21
-0.150852
 0
LINE
 8
1
 62
1
 10
0.746703
 20
-0.150852
 11
0.744452
 21
-0.150619
 0
LINE
 8
1
 62
1
 10
0.744452
 20
-0.150619
 11
0.742626
 21
-0.150385
 0
LINE
 8
1
 62
1
 10
0.742626
 20
-0.150385
 11
0.740367
 21
-0.150042
 0
LINE
 8
1
 62
1
 10
0.740367
 20
-0.150042
 11
0.734268
 21
-0.149317
 0
LINE
 8
1
 62
1
 10
0.734268
 20
-0.149317
 11
0.728590
 21
-0.148973
 0
LINE
 8
1
 62
1
 10
0.728590
 20
-0.148973
 11
0.723345
 21
-0.148989
 0
LINE
 8
1
 62
1
 10
0.723345
 20
-0.148989
 11
0.718549
 21
-0.149343
 0
LINE
 8
1
 62
1
 10
0.718549
 20
-0.149343
 11
0.714215
 21
-0.150013
 0
LINE
 8
1
 62
1
 10
0.714215
 20
-0.150013
 11
0.710354
 21
-0.150975
 0
LINE
 8
1
 62
1
 10
0.710354
 20
-0.150975
 11
0.706979
 21
-0.152208
 0
LINE
 8
1
 62
1
 10
0.706979
 20
-0.152208
 11
0.704101
 21
-0.153687
 0
LINE
 8
1
 62
1
 10
0.704101
 20
-0.153687
 11
0.701728
 21
-0.155389
 0
LINE
 8
1
 62
1
 10
0.701728
 20
-0.155389
 11
0.699870
 21
-0.157290
 0
LINE
 8
1
 62
1
 10
0.699870
 20
-0.157290
 11
0.698535
 21
-0.159364
 0
LINE
 8
1
 62
1
 10
0.698535
 20
-0.159364
 11
0.697730
 21
-0.161589
 0
LINE
 8
1
 62
1
 10
0.697730
 20
-0.161589
 11
0.695210
 21
-0.171470
 0
LINE
 8
1
 62
1
 10
0.695210
 20
-0.171470
 11
0.688502
 21
-0.195896
 0
LINE
 8
1
 62
1
 10
0.688502
 20
-0.195896
 11
0.681347
 21
-0.220195
 0
LINE
 8
1
 62
1
 10
0.681347
 20
-0.220195
 11
0.678288
 21
-0.229922
 0
LINE
 8
1
 62
1
 10
0.678288
 20
-0.229922
 11
0.677801
 21
-0.232237
 0
LINE
 8
1
 62
1
 10
0.677801
 20
-0.232237
 11
0.677844
 21
-0.234704
 0
LINE
 8
1
 62
1
 10
0.677844
 20
-0.234704
 11
0.678423
 21
-0.237298
 0
LINE
 8
1
 62
1
 10
0.678423
 20
-0.237298
 11
0.679544
 21
-0.239994
 0
LINE
 8
1
 62
1
 10
0.679544
 20
-0.239994
 11
0.681213
 21
-0.242767
 0
LINE
 8
1
 62
1
 10
0.681213
 20
-0.242767
 11
0.683434
 21
-0.245592
 0
LINE
 8
1
 62
1
 10
0.683434
 20
-0.245592
 11
0.686209
 21
-0.248442
 0
LINE
 8
1
 62
1
 10
0.686209
 20
-0.248442
 11
0.689542
 21
-0.251293
 0
LINE
 8
1
 62
1
 10
0.689542
 20
-0.251293
 11
0.693433
 21
-0.254119
 0
LINE
 8
1
 62
1
 10
0.693433
 20
-0.254119
 11
0.697884
 21
-0.256893
 0
LINE
 8
1
 62
1
 10
0.697884
 20
-0.256893
 11
0.702893
 21
-0.259591
 0
LINE
 8
1
 62
1
 10
0.702893
 20
-0.259591
 11
0.708459
 21
-0.262185
 0
LINE
 8
1
 62
1
 10
0.708459
 20
-0.262185
 11
0.710561
 21
-0.263082
 0
LINE
 8
1
 62
1
 10
0.710561
 20
-0.263082
 11
0.712237
 21
-0.263845
 0
LINE
 8
1
 62
1
 10
0.712237
 20
-0.263845
 11
0.714273
 21
-0.264832
 0
LINE
 8
1
 62
1
 10
0.714273
 20
-0.264832
 11
0.716662
 21
-0.266059
 0
LINE
 8
1
 62
1
 10
0.716662
 20
-0.266059
 11
0.719392
 21
-0.267546
 0
LINE
 8
1
 62
1
 10
0.719392
 20
-0.267546
 11
0.722454
 21
-0.269309
 0
LINE
 8
1
 62
1
 10
0.722454
 20
-0.269309
 11
0.725835
 21
-0.271364
 0
LINE
 8
1
 62
1
 10
0.725835
 20
-0.271364
 11
0.729524
 21
-0.273728
 0
LINE
 8
1
 62
1
 10
0.729524
 20
-0.273728
 11
0.733509
 21
-0.276417
 0
LINE
 8
1
 62
1
 10
0.733509
 20
-0.276417
 11
0.737776
 21
-0.279448
 0
LINE
 8
1
 62
1
 10
0.737776
 20
-0.279448
 11
0.742311
 21
-0.282834
 0
LINE
 8
1
 62
1
 10
0.742311
 20
-0.282834
 11
0.747101
 21
-0.286590
 0
LINE
 8
1
 62
1
 10
0.747101
 20
-0.286590
 11
0.752129
 21
-0.290731
 0
LINE
 8
1
 62
1
 10
0.752129
 20
-0.290731
 11
0.757382
 21
-0.295271
 0
LINE
 8
1
 62
1
 10
0.757382
 20
-0.295271
 11
0.762843
 21
-0.300223
 0
LINE
 8
1
 62
1
 10
0.762843
 20
-0.300223
 11
0.768495
 21
-0.305599
 0
LINE
 8
1
 62
1
 10
0.768495
 20
-0.305599
 11
0.774322
 21
-0.311411
 0
LINE
 8
1
 62
1
 10
0.774322
 20
-0.311411
 11
0.780306
 21
-0.317672
 0
LINE
 8
1
 62
1
 10
0.780306
 20
-0.317672
 11
0.786430
 21
-0.324392
 0
LINE
 8
1
 62
1
 10
0.786430
 20
-0.324392
 11
0.792674
 21
-0.331581
 0
LINE
 8
1
 62
1
 10
0.792674
 20
-0.331581
 11
0.799020
 21
-0.339250
 0
LINE
 8
1
 62
1
 10
0.799020
 20
-0.339250
 11
0.805450
 21
-0.347407
 0
LINE
 8
1
 62
1
 10
0.805450
 20
-0.347407
 11
0.811942
 21
-0.356062
 0
LINE
 8
1
 62
1
 10
0.811942
 20
-0.356062
 11
0.818478
 21
-0.365221
 0
LINE
 8
1
 62
1
 10
0.818478
 20
-0.365221
 11
0.825023
 21
-0.374871
 0
LINE
 8
1
 62
1
 10
0.825023
 20
-0.374871
 11
0.800064
 21
-0.427643
 0
LINE
 8
1
 62
1
 10
0.800064
 20
-0.427643
 11
0.797196
 21
-0.432429
 0
LINE
 8
1
 62
1
 10
0.797196
 20
-0.432429
 11
0.784696
 21
-0.433065
 0
LINE
 8
1
 62
1
 10
0.784696
 20
-0.433065
 11
0.773448
 21
-0.433369
 0
LINE
 8
1
 62
1
 10
0.773448
 20
-0.433369
 11
0.762629
 21
-0.433403
 0
LINE
 8
1
 62
1
 10
0.762629
 20
-0.433403
 11
0.752244
 21
-0.433188
 0
LINE
 8
1
 62
1
 10
0.752244
 20
-0.433188
 11
0.742300
 21
-0.432745
 0
LINE
 8
1
 62
1
 10
0.742300
 20
-0.432745
 11
0.732800
 21
-0.432095
 0
LINE
 8
1
 62
1
 10
0.732800
 20
-0.432095
 11
0.723747
 21
-0.431258
 0
LINE
 8
1
 62
1
 10
0.723747
 20
-0.431258
 11
0.715145
 21
-0.430255
 0
LINE
 8
1
 62
1
 10
0.715145
 20
-0.430255
 11
0.706995
 21
-0.429108
 0
LINE
 8
1
 62
1
 10
0.706995
 20
-0.429108
 11
0.699298
 21
-0.427837
 0
LINE
 8
1
 62
1
 10
0.699298
 20
-0.427837
 11
0.692056
 21
-0.426463
 0
LINE
 8
1
 62
1
 10
0.692056
 20
-0.426463
 11
0.685268
 21
-0.425008
 0
LINE
 8
1
 62
1
 10
0.685268
 20
-0.425008
 11
0.678932
 21
-0.423490
 0
LINE
 8
1
 62
1
 10
0.678932
 20
-0.423490
 11
0.673048
 21
-0.421932
 0
LINE
 8
1
 62
1
 10
0.673048
 20
-0.421932
 11
0.667613
 21
-0.420353
 0
LINE
 8
1
 62
1
 10
0.667613
 20
-0.420353
 11
0.662624
 21
-0.418774
 0
LINE
 8
1
 62
1
 10
0.662624
 20
-0.418774
 11
0.658076
 21
-0.417215
 0
LINE
 8
1
 62
1
 10
0.658076
 20
-0.417215
 11
0.653966
 21
-0.415696
 0
LINE
 8
1
 62
1
 10
0.653966
 20
-0.415696
 11
0.650288
 21
-0.414236
 0
LINE
 8
1
 62
1
 10
0.650288
 20
-0.414236
 11
0.647037
 21
-0.412855
 0
LINE
 8
1
 62
1
 10
0.647037
 20
-0.412855
 11
0.644205
 21
-0.411572
 0
LINE
 8
1
 62
1
 10
0.644205
 20
-0.411572
 11
0.641786
 21
-0.410406
 0
LINE
 8
1
 62
1
 10
0.641786
 20
-0.410406
 11
0.639771
 21
-0.409375
 0
LINE
 8
1
 62
1
 10
0.639771
 20
-0.409375
 11
0.638153
 21
-0.408498
 0
LINE
 8
1
 62
1
 10
0.638153
 20
-0.408498
 11
0.636170
 21
-0.407361
 0
LINE
 8
1
 62
1
 10
0.636170
 20
-0.407361
 11
0.630745
 21
-0.404482
 0
LINE
 8
1
 62
1
 10
0.630745
 20
-0.404482
 11
0.625574
 21
-0.402110
 0
LINE
 8
1
 62
1
 10
0.625574
 20
-0.402110
 11
0.620678
 21
-0.400231
 0
LINE
 8
1
 62
1
 10
0.620678
 20
-0.400231
 11
0.616078
 21
-0.398828
 0
LINE
 8
1
 62
1
 10
0.616078
 20
-0.398828
 11
0.611795
 21
-0.397887
 0
LINE
 8
1
 62
1
 10
0.611795
 20
-0.397887
 11
0.607847
 21
-0.397390
 0
LINE
 8
1
 62
1
 10
0.607847
 20
-0.397390
 11
0.604255
 21
-0.397320
 0
LINE
 8
1
 62
1
 10
0.604255
 20
-0.397320
 11
0.601036
 21
-0.397659
 0
LINE
 8
1
 62
1
 10
0.601036
 20
-0.397659
 11
0.598209
 21
-0.398389
 0
LINE
 8
1
 62
1
 10
0.598209
 20
-0.398389
 11
0.595790
 21
-0.399490
 0
LINE
 8
1
 62
1
 10
0.595790
 20
-0.399490
 11
0.593796
 21
-0.400943
 0
LINE
 8
1
 62
1
 10
0.593796
 20
-0.400943
 11
0.592242
 21
-0.402726
 0
LINE
 8
1
 62
1
 10
0.592242
 20
-0.402726
 11
0.586323
 21
-0.411030
 0
LINE
 8
1
 62
1
 10
0.586323
 20
-0.411030
 11
0.571243
 21
-0.431383
 0
LINE
 8
1
 62
1
 10
0.571243
 20
-0.431383
 11
0.555794
 21
-0.451456
 0
LINE
 8
1
 62
1
 10
0.555794
 20
-0.451456
 11
0.549427
 21
-0.459422
 0
LINE
 8
1
 62
1
 10
0.549427
 20
-0.459422
 11
0.548137
 21
-0.461405
 0
LINE
 8
1
 62
1
 10
0.548137
 20
-0.461405
 11
0.547286
 21
-0.463720
 0
LINE
 8
1
 62
1
 10
0.547286
 20
-0.463720
 11
0.546889
 21
-0.466348
 0
LINE
 8
1
 62
1
 10
0.546889
 20
-0.466348
 11
0.546960
 21
-0.469267
 0
LINE
 8
1
 62
1
 10
0.546960
 20
-0.469267
 11
0.547515
 21
-0.472456
 0
LINE
 8
1
 62
1
 10
0.547515
 20
-0.472456
 11
0.548565
 21
-0.475892
 0
LINE
 8
1
 62
1
 10
0.548565
 20
-0.475892
 11
0.550123
 21
-0.479553
 0
LINE
 8
1
 62
1
 10
0.550123
 20
-0.479553
 11
0.552201
 21
-0.483415
 0
LINE
 8
1
 62
1
 10
0.552201
 20
-0.483415
 11
0.554809
 21
-0.487456
 0
LINE
 8
1
 62
1
 10
0.554809
 20
-0.487456
 11
0.557957
 21
-0.491651
 0
LINE
 8
1
 62
1
 10
0.557957
 20
-0.491651
 11
0.561653
 21
-0.495975
 0
LINE
 8
1
 62
1
 10
0.561653
 20
-0.495975
 11
0.565907
 21
-0.500405
 0
LINE
 8
1
 62
1
 10
0.565907
 20
-0.500405
 11
0.567542
 21
-0.502001
 0
LINE
 8
1
 62
1
 10
0.567542
 20
-0.502001
 11
0.568829
 21
-0.503318
 0
LINE
 8
1
 62
1
 10
0.568829
 20
-0.503318
 11
0.570372
 21
-0.504973
 0
LINE
 8
1
 62
1
 10
0.570372
 20
-0.504973
 11
0.572156
 21
-0.506981
 0
LINE
 8
1
 62
1
 10
0.572156
 20
-0.506981
 11
0.574165
 21
-0.509354
 0
LINE
 8
1
 62
1
 10
0.574165
 20
-0.509354
 11
0.576383
 21
-0.512103
 0
LINE
 8
1
 62
1
 10
0.576383
 20
-0.512103
 11
0.578793
 21
-0.515241
 0
LINE
 8
1
 62
1
 10
0.578793
 20
-0.515241
 11
0.581379
 21
-0.518778
 0
LINE
 8
1
 62
1
 10
0.581379
 20
-0.518778
 11
0.584123
 21
-0.522726
 0
LINE
 8
1
 62
1
 10
0.584123
 20
-0.522726
 11
0.587007
 21
-0.527092
 0
LINE
 8
1
 62
1
 10
0.587007
 20
-0.527092
 11
0.590013
 21
-0.531888
 0
LINE
 8
1
 62
1
 10
0.590013
 20
-0.531888
 11
0.593122
 21
-0.537121
 0
LINE
 8
1
 62
1
 10
0.593122
 20
-0.537121
 11
0.596316
 21
-0.542799
 0
LINE
 8
1
 62
1
 10
0.596316
 20
-0.542799
 11
0.599574
 21
-0.548930
 0
LINE
 8
1
 62
1
 10
0.599574
 20
-0.548930
 11
0.602877
 21
-0.555520
 0
LINE
 8
1
 62
1
 10
0.602877
 20
-0.555520
 11
0.606206
 21
-0.562575
 0
LINE
 8
1
 62
1
 10
0.606206
 20
-0.562575
 11
0.609539
 21
-0.570100
 0
LINE
 8
1
 62
1
 10
0.609539
 20
-0.570100
 11
0.612858
 21
-0.578099
 0
LINE
 8
1
 62
1
 10
0.612858
 20
-0.578099
 11
0.616140
 21
-0.586577
 0
LINE
 8
1
 62
1
 10
0.616140
 20
-0.586577
 11
0.619365
 21
-0.595537
 0
LINE
 8
1
 62
1
 10
0.619365
 20
-0.595537
 11
0.622513
 21
-0.604980
 0
LINE
 8
1
 62
1
 10
0.622513
 20
-0.604980
 11
0.625561
 21
-0.614910
 0
LINE
 8
1
 62
1
 10
0.625561
 20
-0.614910
 11
0.628489
 21
-0.625325
 0
LINE
 8
1
 62
1
 10
0.628489
 20
-0.625325
 11
0.631275
 21
-0.636227
 0
LINE
 8
1
 62
1
 10
0.631275
 20
-0.636227
 11
0.634037
 21
-0.648217
 0
LINE
 8
1
 62
1
 10
0.634037
 20
-0.648217
 11
0.586750
 21
-0.691076
 0
LINE
 8
1
 62
1
 10
0.586750
 20
-0.691076
 11
0.575266
 21
-0.687286
 0
LINE
 8
1
 62
1
 10
0.575266
 20
-0.687286
 11
0.564668
 21
-0.683506
 0
LINE
 8
1
 62
1
 10
0.564668
 20
-0.683506
 11
0.554567
 21
-0.679630
 0
LINE
 8
1
 62
1
 10
0.554567
 20
-0.679630
 11
0.544961
 21
-0.675678
 0
LINE
 8
1
 62
1
 10
0.544961
 20
-0.675678
 11
0.535849
 21
-0.671673
 0
LINE
 8
1
 62
1
 10
0.535849
 20
-0.671673
 11
0.527225
 21
-0.667634
 0
LINE
 8
1
 62
1
 10
0.527225
 20
-0.667634
 11
0.519086
 21
-0.663584
 0
LINE
 8
1
 62
1
 10
0.519086
 20
-0.663584
 11
0.511426
 21
-0.659541
 0
LINE
 8
1
 62
1
 10
0.511426
 20
-0.659541
 11
0.504241
 21
-0.655527
 0
LINE
 8
1
 62
1
 10
0.504241
 20
-0.655527
 11
0.497524
 21
-0.651562
 0
LINE
 8
1
 62
1
 10
0.497524
 20
-0.651562
 11
0.491267
 21
-0.647665
 0
LINE
 8
1
 62
1
 10
0.491267
 20
-0.647665
 11
0.485463
 21
-0.643855
 0
LINE
 8
1
 62
1
 10
0.485463
 20
-0.643855
 11
0.480103
 21
-0.640151
 0
LINE
 8
1
 62
1
 10
0.480103
 20
-0.640151
 11
0.475180
 21
-0.636573
 0
LINE
 8
1
 62
1
 10
0.475180
 20
-0.636573
 11
0.470682
 21
-0.633137
 0
LINE
 8
1
 62
1
 10
0.470682
 20
-0.633137
 11
0.466600
 21
-0.629862
 0
LINE
 8
1
 62
1
 10
0.466600
 20
-0.629862
 11
0.462922
 21
-0.626766
 0
LINE
 8
1
 62
1
 10
0.462922
 20
-0.626766
 11
0.459639
 21
-0.623865
 0
LINE
 8
1
 62
1
 10
0.459639
 20
-0.623865
 11
0.456737
 21
-0.621175
 0
LINE
 8
1
 62
1
 10
0.456737
 20
-0.621175
 11
0.454204
 21
-0.618712
 0
LINE
 8
1
 62
1
 10
0.454204
 20
-0.618712
 11
0.452027
 21
-0.616493
 0
LINE
 8
1
 62
1
 10
0.452027
 20
-0.616493
 11
0.450192
 21
-0.614532
 0
LINE
 8
1
 62
1
 10
0.450192
 20
-0.614532
 11
0.448686
 21
-0.612843
 0
LINE
 8
1
 62
1
 10
0.448686
 20
-0.612843
 11
0.447493
 21
-0.611440
 0
LINE
 8
1
 62
1
 10
0.447493
 20
-0.611440
 11
0.446055
 21
-0.609664
 0
LINE
 8
1
 62
1
 10
0.446055
 20
-0.609664
 11
0.442037
 21
-0.605020
 0
LINE
 8
1
 62
1
 10
0.442037
 20
-0.605020
 11
0.438072
 21
-0.600940
 0
LINE
 8
1
 62
1
 10
0.438072
 20
-0.600940
 11
0.434185
 21
-0.597419
 0
LINE
 8
1
 62
1
 10
0.434185
 20
-0.597419
 11
0.430403
 21
-0.594449
 0
LINE
 8
1
 62
1
 10
0.430403
 20
-0.594449
 11
0.426748
 21
-0.592024
 0
LINE
 8
1
 62
1
 10
0.426748
 20
-0.592024
 11
0.423247
 21
-0.590135
 0
LINE
 8
1
 62
1
 10
0.423247
 20
-0.590135
 11
0.419922
 21
-0.588772
 0
LINE
 8
1
 62
1
 10
0.419922
 20
-0.588772
 11
0.416798
 21
-0.587926
 0
LINE
 8
1
 62
1
 10
0.416798
 20
-0.587926
 11
0.413898
 21
-0.587585
 0
LINE
 8
1
 62
1
 10
0.413898
 20
-0.587585
 11
0.411245
 21
-0.587738
 0
LINE
 8
1
 62
1
 10
0.411245
 20
-0.587738
 11
0.408861
 21
-0.588372
 0
LINE
 8
1
 62
1
 10
0.408861
 20
-0.588372
 11
0.406767
 21
-0.589473
 0
LINE
 8
1
 62
1
 10
0.406767
 20
-0.589473
 11
0.398248
 21
-0.595078
 0
LINE
 8
1
 62
1
 10
0.398248
 20
-0.595078
 11
0.376835
 21
-0.608610
 0
LINE
 8
1
 62
1
 10
0.376835
 20
-0.608610
 11
0.355177
 21
-0.621746
 0
LINE
 8
1
 62
1
 10
0.355177
 20
-0.621746
 11
0.346363
 21
-0.626874
 0
LINE
 8
1
 62
1
 10
0.346363
 20
-0.626874
 11
0.344444
 21
-0.628257
 0
LINE
 8
1
 62
1
 10
0.344444
 20
-0.628257
 11
0.342814
 21
-0.630109
 0
LINE
 8
1
 62
1
 10
0.342814
 20
-0.630109
 11
0.341494
 21
-0.632416
 0
LINE
 8
1
 62
1
 10
0.341494
 20
-0.632416
 11
0.340506
 21
-0.635164
 0
LINE
 8
1
 62
1
 10
0.340506
 20
-0.635164
 11
0.339872
 21
-0.638337
 0
LINE
 8
1
 62
1
 10
0.339872
 20
-0.638337
 11
0.339610
 21
-0.641921
 0
LINE
 8
1
 62
1
 10
0.339610
 20
-0.641921
 11
0.339740
 21
-0.645897
 0
LINE
 8
1
 62
1
 10
0.339740
 20
-0.645897
 11
0.340282
 21
-0.650249
 0
LINE
 8
1
 62
1
 10
0.340282
 20
-0.650249
 11
0.341255
 21
-0.654959
 0
LINE
 8
1
 62
1
 10
0.341255
 20
-0.654959
 11
0.342674
 21
-0.660008
 0
LINE
 8
1
 62
1
 10
0.342674
 20
-0.660008
 11
0.344559
 21
-0.665376
 0
LINE
 8
1
 62
1
 10
0.344559
 20
-0.665376
 11
0.346925
 21
-0.671043
 0
LINE
 8
1
 62
1
 10
0.346925
 20
-0.671043
 11
0.347874
 21
-0.673122
 0
LINE
 8
1
 62
1
 10
0.347874
 20
-0.673122
 11
0.348598
 21
-0.674815
 0
LINE
 8
1
 62
1
 10
0.348598
 20
-0.674815
 11
0.349438
 21
-0.676916
 0
LINE
 8
1
 62
1
 10
0.349438
 20
-0.676916
 11
0.350376
 21
-0.679432
 0
LINE
 8
1
 62
1
 10
0.350376
 20
-0.679432
 11
0.351393
 21
-0.682370
 0
LINE
 8
1
 62
1
 10
0.351393
 20
-0.682370
 11
0.352468
 21
-0.685735
 0
LINE
 8
1
 62
1
 10
0.352468
 20
-0.685735
 11
0.353582
 21
-0.689532
 0
LINE
 8
1
 62
1
 10
0.353582
 20
-0.689532
 11
0.354716
 21
-0.693765
 0
LINE
 8
1
 62
1
 10
0.354716
 20
-0.693765
 11
0.355848
 21
-0.698437
 0
LINE
 8
1
 62
1
 10
0.355848
 20
-0.698437
 11
0.356960
 21
-0.703551
 0
LINE
 8
1
 62
1
 10
0.356960
 20
-0.703551
 11
0.358031
 21
-0.709108
 0
LINE
 8
1
 62
1
 10
0.358031
 20
-0.709108
 11
0.359040
 21
-0.715111
 0
LINE
 8
1
 62
1
 10
0.359040
 20
-0.715111
 11
0.359966
 21
-0.721559
 0
LINE
 8
1
 62
1
 10
0.359966
 20
-0.721559
 11
0.360789
 21
-0.728453
 0
LINE
 8
1
 62
1
 10
0.360789
 20
-0.728453
 11
0.361489
 21
-0.735791
 0
LINE
 8
1
 62
1
 10
0.361489
 20
-0.735791
 11
0.362044
 21
-0.743572
 0
LINE
 8
1
 62
1
 10
0.362044
 20
-0.743572
 11
0.362435
 21
-0.751793
 0
LINE
 8
1
 62
1
 10
0.362435
 20
-0.751793
 11
0.362639
 21
-0.760451
 0
LINE
 8
1
 62
1
 10
0.362639
 20
-0.760451
 11
0.362637
 21
-0.769543
 0
LINE
 8
1
 62
1
 10
0.362637
 20
-0.769543
 11
0.362408
 21
-0.779062
 0
LINE
 8
1
 62
1
 10
0.362408
 20
-0.779062
 11
0.361932
 21
-0.789005
 0
LINE
 8
1
 62
1
 10
0.361932
 20
-0.789005
 11
0.361188
 21
-0.799365
 0
LINE
 8
1
 62
1
 10
0.361188
 20
-0.799365
 11
0.360155
 21
-0.810135
 0
LINE
 8
1
 62
1
 10
0.360155
 20
-0.810135
 11
0.358815
 21
-0.821307
 0
LINE
 8
1
 62
1
 10
0.358815
 20
-0.821307
 11
0.357064
 21
-0.833445
 0
LINE
 8
1
 62
1
 10
0.357064
 20
-0.833445
 11
0.347164
 21
-0.838128
 0
LINE
 8
1
 62
1
 10
0.347164
 20
-0.838128
 11
0.297090
 21
-0.856045
 0
LINE
 8
1
 62
1
 10
0.297090
 20
-0.856045
 11
0.288143
 21
-0.848685
 0
LINE
 8
1
 62
1
 10
0.288143
 20
-0.848685
 11
0.279626
 21
-0.841332
 0
LINE
 8
1
 62
1
 10
0.279626
 20
-0.841332
 11
0.271608
 21
-0.834068
 0
LINE
 8
1
 62
1
 10
0.271608
 20
-0.834068
 11
0.264078
 21
-0.826914
 0
LINE
 8
1
 62
1
 10
0.264078
 20
-0.826914
 11
0.257028
 21
-0.819887
 0
LINE
 8
1
 62
1
 10
0.257028
 20
-0.819887
 11
0.250445
 21
-0.813006
 0
LINE
 8
1
 62
1
 10
0.250445
 20
-0.813006
 11
0.244319
 21
-0.806289
 0
LINE
 8
1
 62
1
 10
0.244319
 20
-0.806289
 11
0.238637
 21
-0.799752
 0
ENDSEC
 0
EOF
